<svg width="100" height="42" viewBox="0 0 100 42" fill="none" xmlns="http://www.w3.org/2000/svg">
<path d="M40.5849 26.2159L39.8744 23.9653H36.1742L35.4707 26.2159H33.2266L37.0394 15.293H38.9951L42.829 26.2159H40.5849ZM38.0173 18.0537L36.744 22.1423H39.3046L38.0173 18.0537ZM45.7976 18.0988V26.2159H43.7576V18.0988H45.7976ZM43.638 15.9982C43.638 15.6731 43.74 15.4056 43.944 15.1955C44.148 14.9854 44.4259 14.8804 44.7776 14.8804C45.1246 14.8804 45.4013 14.9854 45.6077 15.1955C45.814 15.4056 45.9172 15.6731 45.9172 15.9982C45.9172 16.3283 45.8129 16.5984 45.6042 16.8084C45.3955 17.0185 45.12 17.1235 44.7776 17.1235C44.4352 17.1235 44.1597 17.0185 43.951 16.8084C43.7423 16.5984 43.638 16.3283 43.638 15.9982ZM51.7771 18.0462L51.749 20.1318C51.4723 20.0918 51.2284 20.0718 51.0174 20.0718C50.2483 20.0718 49.7441 20.3493 49.5049 20.9045V26.2159H47.4719V18.0988H49.3924L49.4486 19.0665C49.8567 18.3213 50.4218 17.9487 51.144 17.9487C51.3691 17.9487 51.5802 17.9812 51.7771 18.0462ZM60.5775 22.855V15.293H62.6879V22.855C62.6879 23.5502 62.5437 24.1641 62.2553 24.6967C61.9669 25.2294 61.56 25.6407 61.0348 25.9308C60.5095 26.2209 59.9163 26.3659 59.255 26.3659C58.1717 26.3659 57.3275 26.0721 56.7225 25.4844C56.1175 24.8968 55.815 24.0653 55.815 22.99H57.9395C57.9395 23.5252 58.045 23.9203 58.2561 24.1753C58.4671 24.4304 58.8001 24.5579 59.255 24.5579C59.6583 24.5579 59.9796 24.4104 60.2188 24.1153C60.4579 23.8202 60.5775 23.4001 60.5775 22.855ZM64.0456 22.1798V22.0823C64.0456 21.2771 64.191 20.5594 64.4818 19.9292C64.7726 19.2991 65.1911 18.8114 65.7375 18.4664C66.2839 18.1213 66.9181 17.9487 67.6404 17.9487C68.6674 17.9487 69.5057 18.2838 70.1553 18.954C70.8048 19.6242 71.1671 20.5344 71.2421 21.6847L71.2562 22.2398C71.2562 23.4852 70.9303 24.4842 70.2784 25.2369C69.6265 25.9896 68.7519 26.3659 67.6544 26.3659C66.557 26.3659 65.6812 25.9908 65.027 25.2406C64.3728 24.4904 64.0456 23.4702 64.0456 22.1798ZM66.0787 22.2398C66.0787 23.01 66.2147 23.5989 66.4867 24.0065C66.7587 24.4141 67.1479 24.618 67.6544 24.618C68.1469 24.618 68.5314 24.4166 68.8081 24.014C69.0848 23.6114 69.2232 22.9675 69.2232 22.0823C69.2232 21.3271 69.0848 20.7419 68.8081 20.3268C68.5314 19.9117 68.1422 19.7042 67.6404 19.7042C67.1433 19.7042 66.7587 19.9105 66.4867 20.3231C66.2147 20.7357 66.0787 21.3746 66.0787 22.2398ZM76.8136 18.0462L76.7855 20.1318C76.5088 20.0918 76.2649 20.0718 76.0539 20.0718C75.2847 20.0718 74.7806 20.3493 74.5414 20.9045V26.2159H72.5084V18.0988H74.4289L74.4851 19.0665C74.8932 18.3213 75.4583 17.9487 76.1805 17.9487C76.4056 17.9487 76.6167 17.9812 76.8136 18.0462ZM77.3131 22.0973C77.3131 20.832 77.5792 19.8242 78.1115 19.074C78.6438 18.3238 79.3719 17.9487 80.2958 17.9487C81.0368 17.9487 81.6488 18.2438 82.1319 18.8339V14.6929H84.1719V26.2159H82.3359L82.2374 25.3531C81.7309 26.0283 81.079 26.3659 80.2817 26.3659C79.386 26.3659 78.6673 25.9896 78.1256 25.2369C77.5839 24.4842 77.3131 23.4376 77.3131 22.0973ZM79.3461 22.2548C79.3461 23.015 79.4704 23.5977 79.719 24.0028C79.9675 24.4079 80.3286 24.6104 80.8023 24.6104C81.4307 24.6104 81.8739 24.3279 82.1319 23.7627V20.5594C81.8786 19.9942 81.4401 19.7117 80.8164 19.7117C79.8362 19.7117 79.3461 20.5594 79.3461 22.2548ZM92.2126 26.2159H90.1585C90.0647 26.0208 89.9967 25.7783 89.9544 25.4882C89.462 26.0733 88.8219 26.3659 88.034 26.3659C87.2883 26.3659 86.6704 26.1358 86.1803 25.6757C85.6902 25.2156 85.4452 24.6355 85.4452 23.9353C85.4452 23.075 85.7442 22.4149 86.3421 21.9548C86.9401 21.4946 87.8042 21.2621 88.9344 21.2571H89.87V20.792C89.87 20.4169 89.7798 20.1168 89.5992 19.8917C89.4186 19.6667 89.1337 19.5541 88.7445 19.5541C88.4021 19.5541 88.1336 19.6417 87.939 19.8167C87.7444 19.9917 87.6471 20.2318 87.6471 20.5369H85.614C85.614 20.0668 85.75 19.6317 86.022 19.2316C86.2941 18.8314 86.6786 18.5176 87.1757 18.2901C87.6729 18.0625 88.2309 17.9487 88.85 17.9487C89.788 17.9487 90.5325 18.2 91.0835 18.7027C91.6346 19.2053 91.9101 19.9117 91.9101 20.822V24.3404C91.9148 25.1106 92.0156 25.6932 92.2126 26.0883V26.2159ZM88.4772 24.708C88.7773 24.708 89.054 24.6367 89.3073 24.4942C89.5605 24.3516 89.7481 24.1603 89.87 23.9203V22.5249H89.1103C88.0926 22.5249 87.5509 22.9 87.4853 23.6502L87.4782 23.7777C87.4782 24.0478 87.5673 24.2704 87.7455 24.4454C87.9238 24.6205 88.1676 24.708 88.4772 24.708ZM93.4296 18.0988H95.343L95.4063 19.0365C95.9504 18.3113 96.6796 17.9487 97.5941 17.9487C98.4008 17.9487 99.0011 18.2013 99.395 18.7064C99.789 19.2115 99.9906 19.9667 100 20.972V26.2159H97.967V21.0245C97.967 20.5644 97.8732 20.2306 97.6856 20.023C97.498 19.8155 97.1861 19.7117 96.75 19.7117C96.1778 19.7117 95.7487 19.9717 95.4626 20.4919V26.2159H93.4296V18.0988Z" fill="#87CFCA"/>
<path d="M41.404 36.9789C41.3442 36.8964 40.908 36.6376 40.7357 36.6376C40.5633 36.6376 40.0006 37.0314 39.8915 37.1139C39.786 37.1965 39.5152 37.3315 39.4272 37.3427C39.3393 37.3502 38.5655 37.3915 38.3931 37.3915C38.2173 37.3915 37.957 37.3427 37.8409 37.3502C37.7248 37.3615 37.4927 37.3615 37.4434 37.3615C37.3942 37.3615 37.3766 37.279 37.4434 37.1965C37.5103 37.1139 37.6263 36.8889 37.7424 36.7201C37.8585 36.5551 38.0519 36.4238 38.168 36.36C38.2841 36.2962 38.4705 36.2137 38.4881 36.1312C38.5092 36.0487 38.1997 36.0487 38.0133 36.1124C37.8304 36.1725 37.5701 36.4538 37.4997 36.5363C37.4329 36.6188 37.3766 36.6301 37.3168 36.6188C37.2606 36.6076 37.1445 36.7201 37.0952 36.7614C37.046 36.8026 36.9194 36.8964 36.8033 36.8964C36.6872 36.8964 36.543 36.7614 36.4832 36.7089C36.4269 36.6601 36.3109 36.6188 36.2335 36.6263C36.1561 36.6376 36.0013 36.5851 35.8923 36.495C35.7868 36.4013 35.7586 36.3075 35.7868 36.255C35.8149 36.2062 35.8747 36.0712 35.8923 36.0074C35.9134 35.9474 35.836 35.9136 35.7657 35.8724C35.6989 35.8311 35.0974 35.441 34.6437 34.9759C34.2462 34.6046 33.5287 34.0569 33.198 33.7681C32.9448 33.543 31.5624 32.4028 30.7113 31.8251C29.8565 31.2474 29.0933 30.666 28.7837 30.6173C28.4707 30.5648 28.3933 30.5348 28.3159 30.4297C28.2386 30.3285 27.0286 29.1281 26.3427 28.7268C25.6533 28.3254 24.2675 27.6203 24.2006 27.5602C24.3273 27.3202 24.3554 27.0539 24.2956 26.8138C24.2393 26.5775 23.775 26.2174 23.5886 26.0824C23.4057 25.9473 23.2791 25.8948 23.2791 25.8948C23.2791 25.8948 22.9801 25.1821 22.952 25.0771C23.0399 24.6983 23.2721 23.4754 23.2228 21.855C23.1736 20.2346 23.0575 19.9945 22.8922 19.6569C22.7269 19.3156 22.4877 18.9743 22.3118 18.2203C22.1395 17.4664 22.0902 16.7837 22.1782 16.4836C22.2626 16.1836 22.4947 15.6584 22.6495 15.0508C22.8042 14.4393 22.7093 13.9855 22.7269 13.7792C22.748 13.5729 22.8922 13.3666 22.9238 12.8264C22.952 12.29 23.1349 12.26 23.2721 11.4836C23.4057 10.7109 23.4725 10.2458 23.4725 10.2458C23.4725 10.2458 23.7152 10.2045 23.7645 9.97568C23.8137 9.74688 23.8243 9.56307 23.8806 9.20298C23.9404 8.83913 23.9579 8.42653 23.9685 8.34401C23.9791 8.26148 23.9017 8.12645 23.9017 8.12645C23.9017 8.12645 23.9966 6.64857 24.0248 6.28848C24.0564 5.92463 24.162 5.65832 24.162 5.51203C24.162 5.36949 24.1725 5.25321 24.0177 4.99814C24.0494 4.91562 24.081 4.8631 24.1092 4.8256C24.1373 4.82935 24.1619 4.82935 24.1866 4.82935C25.4176 4.82935 26.4201 3.76782 26.4201 2.45124C26.4201 1.13839 25.4176 0.0731201 24.1866 0.0731201C22.9555 0.0731201 21.9566 1.1384 21.9566 2.45124C21.9566 2.84884 22.048 3.22018 22.2098 3.55027C22.2415 3.68531 22.2872 3.8541 22.3189 3.91036C22.3787 4.0154 22.456 4.10542 22.4842 4.2217C22.5158 4.33423 22.66 4.6043 22.7093 4.69807C22.755 4.78809 22.8324 5.00564 22.8324 5.08817C22.8324 5.17069 22.9027 5.32823 22.9414 5.42951C22.9801 5.53454 22.9696 5.74834 22.9203 5.99965C22.8711 6.24722 22.6319 7.48505 22.5545 7.74386C22.3998 7.84889 22.3505 7.97267 22.3294 8.0852C22.3118 8.19773 22.1957 8.72662 22.1184 8.92167C22.041 9.11672 22.0093 9.4693 22.0023 9.57434C21.9917 9.67561 21.9812 9.91192 21.9144 9.96444C21.837 10.0882 21.7701 10.2945 21.6998 10.4108C21.633 10.5233 21.5837 10.9172 21.6013 11.0822C21.6224 11.2473 21.5943 11.5999 21.5169 11.7011C21.4079 11.9487 21.3903 12.2375 21.3305 12.3838C21.2742 12.5264 21.0807 13.2803 21.0526 13.4341C21.0209 13.5916 20.7396 13.8279 20.6165 13.963C20.4898 14.098 20.2577 14.4694 20.1979 14.5744C20.1803 14.3568 20.1416 14.3568 20.1029 14.2856C20.0642 14.2105 19.9411 14.1768 19.913 14.1468C19.8849 14.1168 19.9587 14.023 19.9693 13.9217C19.9763 13.8167 19.9657 13.7042 19.7512 13.6329C19.5402 13.5616 19.4663 13.5466 19.3889 13.4641C19.3115 13.3816 19.0935 13.3141 19.0196 13.2053C18.8156 12.9577 18.4849 12.6389 17.8378 12.6164C17.8378 12.6164 17.3699 12.6089 17.0041 12.8715C16.663 13.1115 16.0545 13.5841 15.9278 14.5557C15.8012 15.5272 16.6243 16.1461 16.6911 16.2061C16.7615 16.2699 16.9549 16.3936 16.8177 16.5774C16.7509 16.6412 16.7333 16.7537 16.7228 16.8175C16.7122 16.8775 16.5961 17.0426 16.4906 17.1476C16.3851 17.2489 16.153 17.5077 16.153 17.5077C16.153 17.5077 15.6007 17.5377 15.2595 18.0441C15.1153 18.2316 15.0485 18.4904 14.95 18.6442C14.8515 18.8018 14.5139 19.4507 14.4189 19.6457C14.3204 19.8445 14.2536 20.1108 13.9722 20.3809C13.8737 20.5572 13.6521 20.7335 13.4587 21.5287C13.4587 21.5287 12.6919 22.5302 12.4211 23.0029C12.1502 23.4792 11.7246 24.3044 11.6965 24.4207C11.6683 24.5332 11.4538 24.9346 11.394 25.0921C11.3377 25.2459 11.3166 25.3885 11.2498 25.471C11.1829 25.5535 10.9402 25.9286 10.7257 26.1237C10.5147 26.3225 10.4443 26.435 10.388 26.5288C10.3317 26.6188 10.2438 26.7538 9.88504 26.9414C9.52627 27.1252 9.33282 27.3127 8.79818 27.3727C8.26707 27.4365 7.97513 27.384 7.93643 27.5903C7.89774 27.7966 8.82984 27.8379 9.13937 27.7891C9.54387 27.7366 9.78656 27.5078 9.83581 27.5603C9.88505 27.6128 9.71973 27.9016 9.37152 28.0142C9.0233 28.1267 9.07958 28.243 9.07958 28.303C9.07958 28.3668 9.28359 28.438 9.60367 28.3442C9.92375 28.2505 10.4936 27.9579 10.5428 28.0217C10.592 28.0854 10.4162 28.3367 10.3599 28.438C10.3001 28.543 10.388 28.6556 10.476 28.6668C10.5604 28.6743 10.7855 28.6443 10.9579 28.2955C11.1337 27.9429 11.3764 27.7778 11.4432 27.7778C11.5101 27.7778 11.8126 28.1304 12.0166 28.213C12.2171 28.2955 12.6638 28.2955 12.713 28.0554C12.7623 27.8191 12.4422 27.8079 12.3648 27.8079C12.2874 27.8079 12.1045 27.6241 12.094 27.519C12.0834 27.4178 12.1432 27.0877 12.1115 26.9414C12.0834 26.7951 12.1819 26.2812 12.3085 25.9511C12.4316 25.621 12.8572 24.8333 13.1597 24.6383C13.4587 24.4432 14.4858 23.648 14.8058 22.9353C15.1259 22.2227 15.2525 21.8588 15.3581 21.8063C15.4636 21.7538 15.6395 21.7463 15.7837 21.5287C15.9279 21.3112 15.9771 21.1461 16.0932 21.1461C16.2093 21.1461 16.1987 21.0936 16.5293 21.6113C16.86 22.1289 16.9936 22.2227 17.0253 22.2939C17.0534 22.3652 16.962 22.5077 17.064 22.7178C17.1976 22.9954 17.3911 23.0591 17.3911 23.2017C17.3911 23.348 17.4298 23.6143 17.5001 23.8018C17.567 23.9894 17.6971 24.2857 17.6232 24.4132C17.5283 24.5783 17.2961 24.8746 17.2469 24.9796C16.9549 25.0209 16.5399 25.1559 16.4731 25.8086C16.4062 26.42 16.4907 27.0052 16.4625 27.1402C16.4344 27.2752 16.0545 27.6766 15.9103 27.7404C15.7661 27.8004 15.4249 27.8529 15.3088 28.0367C15.1928 28.2242 15.1646 28.378 14.9395 28.513C14.7249 28.6443 13.3145 29.9347 12.3613 31.4351C12.3296 31.4876 12.2417 31.5251 12.1362 31.5626C11.7211 31.6376 11.5593 31.7764 11.482 31.8177C11.4151 31.8552 11.2357 32.039 11.0599 32.2528C10.993 32.3616 10.8946 32.3878 10.8629 32.4253C10.4936 32.5716 9.16754 33.2956 8.37262 33.8845C7.5777 34.4734 6.10745 35.8275 5.58336 36.5176C5.24217 36.9528 5.20349 36.9415 5.11907 36.9828C5.03113 37.024 5.06983 37.2303 5.09796 37.3354C5.09796 37.3354 4.94321 37.5604 4.84472 37.5829C4.74975 37.6017 4.66182 37.3954 4.53519 37.3841C4.40857 37.3766 4.27491 37.6542 4.23621 37.7255C4.19752 37.7967 4.13773 37.9318 4.05332 37.9543C3.96538 37.973 3.81062 37.8492 3.79304 37.5904C3.77193 37.3354 3.61717 37.0878 3.56793 37.0653C3.45185 37.0653 3.38503 37.2603 3.38503 37.3354C3.38503 37.4066 3.45186 37.6017 3.51166 37.6842C3.56793 37.7667 3.52924 37.8793 3.52924 37.9655C3.52924 38.048 3.62773 38.1306 3.63476 38.1606C3.64532 38.1906 3.68401 38.4194 3.60663 38.3969C3.52924 38.3781 3.36393 38.3856 3.24785 38.4682C3.13178 38.5507 3.07199 38.6557 3.07199 38.727C3.07199 38.7982 3.12123 38.9558 2.88909 39.0083C2.6077 39.1096 2.38611 39.1508 2.2419 39.2034C2.09417 39.2559 1.75651 39.4622 1.62285 39.4809C1.48567 39.5034 1.39773 39.4922 1.28166 39.5034C1.16558 39.5147 1.06007 39.5747 0.943993 39.5747C0.827917 39.5747 0.490252 39.7698 0.303833 39.8748C0.120936 39.9798 -0.0936306 40.3174 0.0435517 40.6287C0.177213 40.9401 0.567636 41.3414 0.694265 41.4877C0.817373 41.6302 1.00379 41.754 1.40829 41.8065C1.8163 41.859 2.04845 41.7053 2.25245 41.5702C2.45646 41.4352 2.90316 41.3639 3.07551 41.4052C3.25137 41.4464 3.61015 41.5815 3.89857 41.3527C4.26789 41.0864 4.15182 40.9101 4.25734 40.835C4.35583 40.835 4.39451 40.7863 4.48245 40.6287C4.56687 40.4749 4.6759 40.3399 4.83067 40.3099C4.98544 40.2799 5.12964 40.0811 5.22813 39.8673C5.3231 39.6497 5.51655 39.4322 5.61504 39.3909C5.71001 39.3497 5.76981 39.2559 5.79795 39.1734C5.82609 39.0908 6.01251 39.0196 6.11803 38.9258C6.22355 38.832 6.31148 38.7795 6.36073 38.8208C6.40645 38.862 6.49439 38.7795 6.60342 38.697C6.84261 38.5732 6.95867 38.3557 7.03606 38.4082C7.11344 38.4607 7.38428 38.532 7.49331 38.4307C7.59883 38.3257 9.0128 37.1066 9.51578 36.7052C9.85697 36.4577 10.1067 36.3639 10.7785 35.9513C11.3131 35.6174 12.1432 35.0323 12.3261 34.8973C12.5126 34.7622 13.3532 34.0683 13.4587 33.9895C13.6944 33.8132 13.9336 33.787 14.7777 33.3256C15.4073 32.9843 16.7263 32.2716 17.866 31.4989C18.4498 31.1275 19.4382 30.5874 19.5613 30.5799C19.688 30.5686 20.0362 30.8462 20.4055 30.9925C20.8557 31.1688 21.1512 31.2101 21.7913 31.4351C22.428 31.6639 24.155 32.4366 24.57 32.6129C24.9886 32.7892 25.5584 33.018 26.283 33.0593C26.691 33.1418 26.8844 33.2018 27.0216 33.2356C27.1553 33.2656 27.2608 33.2543 27.398 33.3181C27.5316 33.3781 27.9291 33.6594 28.1718 33.7832C28.4145 33.907 29.2762 34.5147 29.5014 34.691C29.7229 34.8673 30.7606 35.715 30.9927 35.88C31.2249 36.0451 31.457 36.2401 31.6329 36.2626C31.8052 36.2814 32.0198 36.4052 32.2519 36.6002C32.4841 36.799 33.0257 37.2004 33.1805 37.3241C33.3353 37.4479 33.5498 37.6655 33.8488 37.688C34.1513 37.7067 34.2955 37.7818 34.489 37.9656C34.6824 38.1531 34.9744 38.5657 35.108 38.6482C35.2452 38.7308 35.4 38.8658 35.4562 38.9896C35.516 39.1134 35.8748 39.586 36.0085 39.691C36.1456 39.796 36.2019 39.8861 36.2512 40.0549C36.3004 40.2199 36.5009 40.6513 36.6099 40.8276C36.7155 41.0039 36.7647 41.1802 37.0742 40.9514C37.4717 40.6738 37.7918 40.2687 38.2947 39.9198C38.8012 39.5672 39.0897 39.3722 39.4766 39.0909C39.867 38.8133 40.8061 37.823 41.077 37.5117C41.3443 37.1966 41.4603 37.0614 41.404 36.9789Z" fill="#87CFCA"/>
</svg>
