<svg width="39" height="39" viewBox="0 0 39 39" fill="none" xmlns="http://www.w3.org/2000/svg">
<path d="M26.5776 14.5893C24.9502 12.3583 25.3925 9.16725 27.5851 7.48858L31.5435 4.45804L37.4686 12.5804L33.5103 15.6109C31.3176 17.2896 28.205 16.8202 26.5776 14.5893V14.5893Z" fill="#A1C430"/>
<path d="M27.2163 23.1338C28.4116 20.6445 31.3999 19.5919 33.8659 20.8347L38.2822 23.0603L33.9132 32.1589L29.4969 29.9333C27.0309 28.6905 26.021 25.6231 27.2163 23.1338V23.1338Z" fill="#1EAAF2"/>
<path d="M19.2718 27.9067C22.005 27.8994 24.2263 30.1091 24.2333 32.8423L24.2465 38.0333L14.3487 38.0598L14.3355 32.8688C14.3285 30.1356 16.5386 27.914 19.2718 27.9067V27.9067Z" fill="#094DA2"/>
<path d="M18.8388 10.2685C16.1059 10.307 13.8606 8.12274 13.8239 5.38976L13.7542 0.1993L23.6511 0.0597726L23.7208 5.25023C23.7575 7.98321 21.5718 10.23 18.8388 10.2685V10.2685Z" fill="#094DA2"/>
<path d="M11.3448 15.7776C10.0718 18.2281 7.05434 19.1816 4.62985 17.8597L0.282251 15.4894L4.9323 6.53818L9.2799 8.90853C11.7044 10.2304 12.6178 13.3271 11.3448 15.7776V15.7776Z" fill="#1EAAF2"/>
<path d="M11.6053 23.7339C13.1974 25.9901 12.7058 29.175 10.4867 30.8185L6.48345 33.7833L0.684583 25.5659L4.68782 22.601C6.90691 20.9575 10.0131 21.4777 11.6053 23.7339V23.7339Z" fill="#A1C430"/>
<ellipse cx="18.9754" cy="19.3511" rx="5.87684" ry="6.02058" fill="#094DA2"/>
</svg>
