<svg width="32" height="32" viewBox="0 0 32 32" fill="none" xmlns="http://www.w3.org/2000/svg">
<path d="M22.1435 12.2354C20.7656 10.3466 21.1535 7.6633 23.0099 6.24207L26.3253 3.70382L31.3148 10.5437L27.9995 13.0819C26.1431 14.5032 23.5213 14.1241 22.1435 12.2354V12.2354Z" fill="#A1C430"/>
<path d="M22.6814 19.4307C23.6973 17.3149 26.2201 16.456 28.316 17.5123L32 19.3689L28.3209 27.0309L24.6369 25.1743C22.5409 24.118 21.6654 21.5465 22.6814 19.4307V19.4307Z" fill="#1EAAF2"/>
<path d="M15.9912 23.45C18.2928 23.4438 20.1634 25.3047 20.1693 27.6063L20.1804 31.9777L11.8454 32L11.8343 27.6286C11.8284 25.327 13.6895 23.4561 15.9912 23.45V23.45Z" fill="#094DA2"/>
<path d="M15.6266 8.59677C13.3252 8.62922 11.4344 6.78982 11.4035 4.48836L11.3448 0.117448L19.679 -4.82301e-05L19.7377 4.37086C19.7686 6.67232 17.928 8.56432 15.6266 8.59677V8.59677Z" fill="#094DA2"/>
<path d="M9.31583 13.2359C8.2345 15.3175 5.68841 16.0947 3.62897 14.9718L-5.10248e-06 12.9933L3.91583 5.45541L7.5448 7.43396C9.60424 8.55679 10.3972 11.1544 9.31583 13.2359V13.2359Z" fill="#1EAAF2"/>
<path d="M9.53518 19.9361C10.8837 21.847 10.4532 24.5245 8.57376 25.9165L5.22207 28.3988L0.338814 21.4789L3.69051 18.9965C5.56996 17.6046 8.18671 18.0253 9.53518 19.9361V19.9361Z" fill="#A1C430"/>
<ellipse cx="15.7416" cy="16.2454" rx="4.94892" ry="5.06996" fill="#094DA2"/>
</svg>
