<svg width="51" height="51" viewBox="0 0 51 51" fill="none" xmlns="http://www.w3.org/2000/svg">
<path d="M25.2423 0L19.7434 15.2219H23.2726C25.5789 15.2219 26.8225 16.9972 26.0327 19.1676L20.1152 34.8059L15.8529 34.8038L21.9192 18.4855H18.4536L12.3874 34.8038H7.77667L20.4488 0.420706C19.9364 0.515352 19.4279 0.621725 18.9275 0.74792C8.06605 3.47524 0 13.3191 0 25.0149C0 36.3083 7.52048 45.8723 17.8162 48.9739C18.1654 49.0794 18.5186 49.181 18.8744 49.2713L19.6265 47.1912L24.0057 35.0842H24.0078L31.1003 15.2219H39.5887C41.8972 15.2219 43.1397 16.9972 42.3509 19.1676L37.1856 32.9701C36.8179 33.9786 35.6395 34.8038 34.5658 34.8038H28.4464L23.7422 47.7946L22.9645 49.9449C23.2822 49.971 23.5998 49.9956 23.9207 50.0086C24.2862 50.025 24.6525 50.0363 25.0213 50.0363C38.8178 50.0363 50.0426 38.8126 50.0426 25.0149C50.0415 11.5339 39.3229 0.515243 25.9626 0.0169927C25.7233 0.00828966 25.4827 0.00216489 25.2423 0ZM34.7719 18.4855L29.8658 31.5401H33.3313L38.2374 18.4855H34.7719Z" fill="#87CFCA"/>
</svg>
