<svg width="68" height="26" viewBox="0 0 68 26" fill="none" xmlns="http://www.w3.org/2000/svg">
<path d="M0 0V26H5.47368V13.6842C5.47368 13 6.01892 12.3158 6.8421 12.3158H10.9474C11.6316 12.3158 12.3158 12.861 12.3158 13.6842V26H17.7895V12.3158C17.7895 9.30633 15.3252 6.84211 12.3158 6.84211H5.47368V0H0ZM41.0526 0V26H46.5263V0H41.0526ZM20.5263 6.84211V20.5263C20.5263 23.5358 22.9905 26 26 26H32.8421C35.8516 26 38.3051 23.5358 38.4441 20.5263V6.84211H32.9704V19.0296C32.9704 19.8528 32.2969 20.5263 31.4737 20.5263H27.4967C26.6735 20.5263 26 19.8528 26 19.0296V6.84211H20.5263ZM49.2632 6.84211V20.5263C49.2632 23.5358 51.7274 26 54.7368 26H61.5789C64.5884 26 67.0526 23.5358 67.0526 20.5263V6.84211H61.5789V19.1579C61.5789 19.8421 61.0337 20.5263 60.2105 20.5263H56.1053C55.421 20.5263 54.7368 19.9811 54.7368 19.1579V6.84211H49.2632Z" fill="#87CFCA"/>
</svg>
