<svg width="68" height="31" viewBox="0 0 68 31" fill="none" xmlns="http://www.w3.org/2000/svg">
<path d="M12.6818 0V1.40909V16.5733C12.6818 17.236 12.5023 17.5695 12.203 17.8338C11.9036 18.0982 11.3852 18.3154 10.5682 18.3154C9.0778 18.3154 8.50409 17.4399 8.50409 16.5183V16.5018L8.42703 12.6818H0V16.5733C0 18.1628 0.253059 20.6329 1.77237 22.8344C3.29168 25.0359 6.15168 26.7727 10.5682 26.7727C15.0066 26.7727 17.8697 24.9171 19.375 22.6638C19.4157 22.6029 19.4462 22.5406 19.4851 22.4794C19.7946 23.0936 20.1632 23.659 20.6107 24.1582C22.2184 25.9517 24.6392 26.771 27.4993 26.7727C30.1374 26.7989 32.3885 25.832 33.9861 24.5022C34.504 24.0711 34.9569 23.6026 35.3429 23.1096C35.5733 23.4799 35.8222 23.8363 36.1107 24.1582C37.7184 25.9517 40.1392 26.771 42.9993 26.7727C45.553 26.7981 47.7316 25.8847 49.3182 24.6206V31H57.7727V26.547C58.4632 26.702 59.2232 26.7727 60.0405 26.7727C61.816 26.7727 67.6364 26.0682 67.6364 16.9091C67.6364 7.75 61.816 7.04545 60.0405 7.04545H57.7728H49.3182V9.35174C47.7098 7.75731 45.4656 7.04545 42.9773 7.04545C40.243 7.04545 37.8686 7.85877 36.2373 9.55814C35.8015 10.0121 35.431 10.5236 35.1145 11.0801C34.8661 10.6379 34.5974 10.2185 34.2833 9.84161C32.66 7.89359 30.2116 7.04545 27.4773 7.04545C24.954 7.04545 22.7456 7.74689 21.1364 9.18936V0H12.6818ZM15.5 2.81818H18.3182V16.4577C18.3182 17.5703 18.0699 19.5456 17.0329 21.0978C15.9959 22.6501 14.2785 23.9545 10.5682 23.9545C6.8373 23.9545 5.11582 22.7184 4.09242 21.2354C3.06903 19.7525 2.81818 17.8288 2.81818 16.5733V15.5H5.66388L5.68591 16.5183C5.68591 18.9222 7.73547 21.1336 10.5682 21.1336C11.8986 21.1336 13.1437 20.7646 14.0689 19.9474C14.9941 19.1303 15.5 17.889 15.5 16.5733L15.5 2.81818ZM27.4773 9.86364C29.6748 9.86364 31.1014 10.4246 32.1201 11.647C33.1388 12.8695 33.8182 14.9833 33.8182 18.3182H25.3636C25.3636 19.7273 25.6976 21.1364 27.4773 21.1364C29.2499 21.1364 29.5909 19.7273 29.5909 19.7273H33.8182C33.8182 20.2185 33.2976 21.4038 32.1807 22.3336C31.0637 23.2633 29.4588 23.9748 27.5241 23.9546H27.5158H27.5075C25.1509 23.9546 23.6865 23.3645 22.7106 22.2758C21.7346 21.187 21.1363 19.391 21.1363 16.6449C21.1363 14.2048 21.7576 12.5651 22.7684 11.5122C23.7791 10.4592 25.2798 9.86364 27.4773 9.86364ZM42.9773 9.86364C45.1748 9.86364 46.6014 10.4246 47.6201 11.647C48.6388 12.8695 49.3182 14.9833 49.3182 18.3182H40.8636C40.8636 19.7273 41.1976 21.1364 42.9773 21.1364C44.7499 21.1364 45.0909 19.7273 45.0909 19.7273H49.3182C49.3182 20.2185 48.7976 21.4038 47.6807 22.3336C46.5637 23.2633 44.9588 23.9748 43.024 23.9546H43.0158H43.0075C40.6509 23.9546 39.1865 23.3645 38.2106 22.2758C37.2346 21.187 36.6363 19.391 36.6363 16.6449C36.6363 14.2048 37.2576 12.5651 38.2684 11.5122C39.2791 10.4592 40.7797 9.86364 42.9773 9.86364ZM52.1364 9.86364H54.9545V11.5534C55.9832 10.2712 57.4909 9.86364 59.1818 9.86364H60.0405C62.6614 9.86364 64.2689 11.6682 64.6916 14.9936C64.7339 15.2332 64.7628 15.4855 64.7769 15.7532C64.7769 15.8096 64.7907 15.8812 64.7907 15.9376C64.8048 16.2476 64.8182 16.5709 64.8182 16.9091C64.8182 17.2473 64.8048 17.5706 64.7907 17.8806C64.7766 18.261 64.7342 18.6295 64.6778 18.9677C64.6496 19.2072 64.6073 19.4306 64.565 19.642V19.6722C63.9873 22.4622 62.4218 23.9545 60.0405 23.9545H59.1818C57.4909 23.9545 55.9832 23.547 54.9546 22.2647V28.1818H52.1364L52.1364 9.86364ZM27.4773 12.6818C26.0428 12.6818 25.3636 14.0909 25.3636 15.5H29.5909C29.5909 14.0909 28.9272 12.6818 27.4773 12.6818ZM42.9773 12.6818C41.5428 12.6818 40.8636 14.0909 40.8636 15.5H45.0909C45.0909 14.0909 44.4272 12.6818 42.9773 12.6818ZM57.7727 12.6818C56.2163 12.6818 54.9545 14.5744 54.9545 16.9091C54.9545 19.2437 56.2163 21.1364 57.7727 21.1364C59.3292 21.1364 60.5909 19.2437 60.5909 16.9091C60.5909 14.5744 59.3292 12.6818 57.7727 12.6818Z" fill="#87CFCA"/>
</svg>
