<svg width="59" height="47" viewBox="0 0 59 47" fill="none" xmlns="http://www.w3.org/2000/svg">
<path d="M56.1802 39.0558L56.2003 39.1397L52.5986 41.0398L52.5809 41.2336L56.6009 44.5233L56.5607 44.6367H52.9437L52.6305 44.5233L50.1644 42.5074L49.8726 42.4767L48.0753 43.4243L47.9181 43.6843V44.4583L47.7433 44.6355H44.7336L44.5563 44.4583V39.2319L44.7336 39.0546H47.7433L47.9181 39.2319V40.8023L48.0753 40.8968L51.4111 39.1373L51.7431 39.0534H56.1802M42.8843 39.057L43.0616 39.233V40.7503L42.8843 40.9275H35.3159L35.1398 41.1036V42.5889L35.3159 42.7662H42.8843L43.0616 42.9422V44.4595L42.8843 44.6355H32.6064L32.3216 44.4961L31.9021 43.9443L31.7969 43.6276V40.0673L31.9021 39.7506L32.3216 39.1988L32.6064 39.0582L42.8843 39.057ZM26.5374 39.057L26.8198 39.1964L30.8327 44.4925L30.7618 44.632H27.53L27.2488 44.4914L26.7017 43.7694L26.4193 43.6276H21.7281L21.4445 43.7694L20.8974 44.4914L20.6138 44.632H17.382L17.3111 44.4925L21.324 39.1964L21.6064 39.057H26.5374ZM22.716 42.0335H25.4444L25.5141 41.8941L24.6763 40.7881L24.3939 40.6486H23.7688L23.484 40.7881L22.6474 41.8941L22.716 42.0335ZM15.9227 39.057L16.0988 39.233V44.4606L15.9227 44.6367H12.9142L12.737 44.4606V41.9508L12.6318 41.9154L10.675 44.4961L10.3926 44.6367H8.07183L7.78705 44.4961L5.83261 41.9154L5.72508 41.9508V44.4606L5.54901 44.6367H2.53936L2.36329 44.4606V39.233L2.53936 39.057H6.41989L6.7023 39.1976L9.12349 42.3928H9.33737L11.7586 39.1976L12.041 39.057H15.9227ZM56.1802 36.6925H51.7431C51.547 36.6925 51.352 36.7173 51.1629 36.7646L50.8309 36.8485C50.6501 36.8946 50.474 36.9619 50.3086 37.0494L49.5027 37.4747L49.4283 37.3991C48.984 36.9465 48.3766 36.6925 47.7433 36.6925H44.7336C44.4122 36.6925 44.0979 36.7575 43.8072 36.8816C43.5177 36.7587 43.2045 36.6937 42.8843 36.6937H32.6064C32.2424 36.6937 31.8844 36.7776 31.5582 36.9383L31.2735 37.0789C30.9461 37.2408 30.6602 37.4771 30.4392 37.769L30.0197 38.3208C29.8638 38.5264 29.742 38.7568 29.6605 39.0026L29.6534 39.0227L28.7034 37.769C28.4812 37.4759 28.1929 37.2384 27.8632 37.0753L27.5808 36.9359C27.2559 36.7764 26.899 36.6937 26.5374 36.6937H21.6088C21.2472 36.6937 20.8903 36.7764 20.5654 36.9359L20.283 37.0753C19.9521 37.2384 19.665 37.4747 19.4428 37.769L18.4561 39.0711C18.4171 38.504 18.1749 37.9675 17.7696 37.5622L17.5935 37.3861C17.1504 36.943 16.549 36.6937 15.9227 36.6937H12.0422C11.677 36.6937 11.3166 36.7788 10.9893 36.9406L10.7069 37.0813C10.3808 37.2431 10.096 37.4795 9.8762 37.7702L9.23102 38.6209L8.58584 37.7702C8.36606 37.4795 8.08128 37.2443 7.75515 37.0813L7.47273 36.9406C7.14542 36.7776 6.78501 36.6937 6.41989 36.6937H2.53936C1.91309 36.6937 1.31163 36.943 0.86851 37.3861L0.692445 37.5622C0.249327 38.0053 0 38.6068 0 39.233V44.4606C0 45.0869 0.249327 45.6884 0.692445 46.1315L0.86851 46.3076C1.31163 46.7507 1.91309 47 2.53936 47H5.54901C5.99331 47 6.42579 46.8747 6.79801 46.6431L7.02371 46.7542C7.34984 46.9149 7.70788 47 8.07183 47H10.3926C10.7577 47 11.1181 46.9149 11.4454 46.753L11.6652 46.6431C12.0374 46.8747 12.4687 47 12.9142 47H15.9227C16.1756 47 16.4237 46.9598 16.66 46.8818C16.8905 46.9563 17.1339 46.9953 17.3832 46.9953H20.615C20.9801 46.9953 21.3405 46.9102 21.6667 46.7483L21.9503 46.6077C22.2492 46.4588 22.5139 46.2485 22.7254 45.9909H25.4231C25.6335 46.2473 25.8958 46.4564 26.1936 46.6053L26.4748 46.7459C26.8033 46.9102 27.1649 46.9953 27.5312 46.9953H30.763C31.0844 46.9953 31.3952 46.9303 31.6811 46.8098C31.973 46.9338 32.2873 46.9988 32.6064 46.9988H42.8843C43.2045 46.9988 43.5177 46.9338 43.8072 46.8109C44.0979 46.935 44.4122 47 44.7336 47H47.7433C48.3766 47 48.984 46.7459 49.4283 46.2934L49.6032 46.1161C49.7899 45.9259 49.9423 45.7073 50.0546 45.4698L51.1346 46.3525C51.3414 46.5214 51.5765 46.655 51.8282 46.7459L52.1413 46.8594C52.3989 46.9527 52.6707 47 52.9437 47H56.5607C57.5639 47 58.4584 46.3666 58.7905 45.419L58.8306 45.3055C59.1603 44.3673 58.8673 43.3239 58.0968 42.6941L56.6966 41.5491L57.3016 41.23C58.2552 40.7278 58.7467 39.6442 58.4986 38.5949L58.4785 38.511C58.228 37.4452 57.2756 36.6925 56.1802 36.6925ZM30.7145 10.2803H33.9546L34.1661 10.1279L34.7699 8.28216L34.9815 8.12973H37.4617L37.7725 8.19118L38.563 8.52204L38.8301 8.47595L40.9405 6.53805L40.9122 6.36789L38.5571 5.37886L38.3834 5.15907L38.0549 3.06047L38.1778 2.96357L40.5305 3.95025L40.6534 3.85335L40.2729 1.43097L40.3591 1.15565L40.8767 0.613275L40.8483 0.417121L40.1784 0.0271776L39.8888 0L36.6889 1.1592L36.3876 1.15211L35.4423 0.755072L35.2438 0.844878L35.1197 1.22891L35.1942 1.4806L35.6656 1.85991L35.6786 2.07615L35.3631 2.39283L35.1008 2.44365L34.1295 2.03598L34.0314 1.81974L34.4568 0.515198L34.3599 0.298956L33.7537 0.0460843L33.5552 0.135889L32.9679 1.92963L32.9597 2.23804L33.3342 3.67019L33.326 3.9786L32.0203 7.97612L31.8087 8.12973H31.1033L30.9142 8.28807L30.5834 10.1208L30.7145 10.2803ZM37.5634 8.77136H35.447L35.2355 8.9238L34.8432 10.1267L34.9531 10.2803H37.7985L37.9356 10.1196L37.7489 8.9297L37.5634 8.77136ZM41.2607 2.23568L41.4262 2.31721L42.1316 1.92727L42.1694 1.7252L41.5928 1.01976L41.3789 1.01149L41.2253 1.17219L41.1367 1.44752M41.4155 3.22471L41.5739 4.23739L41.7476 4.45717L43.4893 5.18861L43.6961 5.40249L43.8745 5.8586L44.0943 5.99922L44.502 5.97441L44.7111 5.81134L45.2819 4.07314L45.2027 3.82145L44.2728 3.12309L44.1274 2.86786L44.0163 1.78665L43.8604 1.70275L41.5325 2.98957L41.4155 3.22471ZM47.1205 3.4185L45.0562 2.22031L44.9333 2.29948L44.9711 2.66343L45.1141 2.92103L46.1386 3.70564L46.2154 3.95733L45.361 6.57468L45.1484 6.73539L42.3668 6.90082L42.1222 7.04852L40.7538 9.2712L40.8176 9.46972L41.4392 9.73204L41.5361 9.94592L40.9476 11.7231L40.7467 11.8129L39.1125 11.1276L38.8041 11.0661H38.2452L38.1081 11.2245L38.6434 14.6252L38.8088 14.8628L41.1544 16.1838L41.1343 16.2725L39.0841 16.3918L38.8573 16.5478L36.8721 21.0451L36.7681 21.3464L34.6246 30.4829L34.6754 30.7713L35.1114 31.4235L35.0405 31.5559H34.5821L34.3304 31.4235L33.9842 30.9083L33.9274 30.6176L35.7909 21.4835L35.7495 21.1822L34.8491 19.4286L34.8798 19.1616L37.834 15.7478L37.9131 15.4654L37.2455 11.2233L37.06 11.0626H30.7122L30.5515 11.2256V11.4395L30.4345 11.7101L20.0927 21.2956L19.815 21.4055H18.462L18.182 21.5131L17.4884 22.1582L17.4529 22.4076L18.7279 24.6149L18.7563 24.9079L16.3599 31.7934L16.3883 32.0841L16.6305 32.4976L16.8727 32.6383H21.591L21.7825 32.4799L21.8865 31.947L21.8226 31.6587L20.8289 30.2951L20.888 30.1214L26.8423 28.3264L26.8801 28.1681L25.1029 26.4275L24.85 26.3968L19.7028 29.4833L19.4865 29.7078L18.5589 31.4153L18.3238 31.5559H17.9339L17.837 31.4105L19.8528 26.8163L20.075 26.645L24.4187 25.9395L24.6042 25.754L25.3404 21.2011L25.2459 20.9341L24.3384 20.1317L24.2486 19.867L24.3537 19.3317L24.5038 19.2809L26.099 20.6906L26.2467 20.9577L27.3681 27.6623L27.4697 27.6777L29.0839 24.5393L29.3178 24.4246L31.2628 24.7744L31.485 24.6551L32.1124 23.1532L32.1479 22.8471L30.8303 14.988L30.9036 14.9573L33.8175 18.7256L33.853 19.0009L32.7623 21.604L32.7671 21.8995L33.7715 24.082L33.8093 24.3856L32.3712 31.7839L32.4197 32.0817L32.6643 32.4953L32.9041 32.6359H37.5669L37.7761 32.4823L37.9521 31.9399L37.9013 31.6599L36.1348 29.4596L36.1017 29.189L38.2511 24.6976L38.3409 24.3916L38.7509 21.077L38.8726 20.7887L42.069 16.7947L42.1682 16.5088L42.0796 13.0548L41.978 12.7641L41.7003 12.3848L41.6542 12.1024L42.2616 10.2461L42.2309 9.95301L41.8657 9.31019L41.9343 9.10813L45.8644 7.36993L46.0629 7.15369L47.208 3.64893L47.1205 3.4185Z" fill="#87CFCA"/>
</svg>
