<svg width="133" height="40" viewBox="0 0 133 40" fill="none" xmlns="http://www.w3.org/2000/svg">
<path d="M12.9992 0C10.9102 0 9.05765 1.28533 7.5167 3.28127C5.97575 5.27722 4.65957 8.04955 3.55372 11.4358C1.34201 18.2082 0 27.4464 0 37.6502C6.22407e-05 38.2121 0.464461 38.6677 1.03735 38.6677H6.22407C6.79696 38.6677 7.26135 38.2121 7.26142 37.6502C7.26142 28.312 8.03758 19.9648 9.25304 14.0155C9.86077 11.0408 10.5862 8.66114 11.3318 7.10909C11.7046 6.33307 12.0855 5.76921 12.3995 5.45156C12.7135 5.13392 12.8959 5.08786 12.9992 5.08786C13.1299 5.08786 13.3161 5.13674 13.6192 5.41778C13.9223 5.69881 14.2896 6.19979 14.6525 6.89445C15.3784 8.28376 16.0901 10.4306 16.6867 13.1231C17.8798 18.5081 18.6475 26.0878 18.6722 34.5994C18.6734 35.1606 19.1375 35.615 19.7096 35.615H24.8963C25.4684 35.615 25.9325 35.1606 25.9336 34.5994C25.9584 26.0879 26.7258 18.5081 27.9192 13.1231C28.5159 10.4306 29.2274 8.28376 29.9534 6.89445C30.3163 6.19979 30.6855 5.69882 30.9887 5.41778C31.2918 5.13673 31.476 5.08786 31.6066 5.08786C31.7102 5.08786 31.8924 5.13394 32.2063 5.45156C32.5203 5.76919 32.9034 6.33308 33.2761 7.10909C34.0216 8.66111 34.7453 11.0408 35.3528 14.0155C36.5679 19.9648 37.3444 28.3119 37.3444 37.6502C37.3445 38.2121 37.8089 38.6677 38.3818 38.6677H43.5685C44.1414 38.6677 44.6058 38.2121 44.6059 37.6502C44.6059 27.4464 43.2636 18.2082 41.0521 11.4358C39.9464 8.04955 38.63 5.27723 37.0892 3.28127C35.5483 1.28532 33.6957 0 31.6066 0C29.2652 0 27.2081 1.51495 25.5203 3.85764C24.2778 5.58232 23.2387 7.93783 22.3029 10.5553C21.3668 7.93795 20.3282 5.58222 19.0855 3.85764C17.3975 1.515 15.3403 0 12.9992 0ZM12.9992 2.03514C14.4154 2.03514 15.9153 2.98327 17.3917 5.03221C18.8681 7.08116 20.229 10.1492 21.3041 13.928C21.4285 14.369 21.8375 14.6742 22.3039 14.6742C22.7703 14.6742 23.1794 14.3689 23.3038 13.928C24.3784 10.1492 25.74 7.08111 27.2161 5.03221C28.6923 2.98331 30.1898 2.03514 31.6066 2.03514C32.8205 2.03514 34.1146 2.8 35.4359 4.5115C36.7571 6.223 38.0178 8.81481 39.0767 12.0578C41.1184 18.3102 42.3722 27.0341 42.4643 36.6326H39.3766C39.3197 27.6231 38.5937 19.5242 37.387 13.616C36.7596 10.544 36.0211 8.05141 35.1522 6.24257C34.7178 5.33815 34.2538 4.59929 33.6955 4.03452C33.1372 3.46975 32.4206 3.05273 31.6066 3.05273C30.8275 3.05273 30.1211 3.42106 29.5623 3.93912C29.0035 4.45719 28.5404 5.13804 28.1076 5.96632C27.242 7.62289 26.5109 9.89292 25.8911 12.6898C24.7035 18.0488 23.9889 25.3928 23.9056 33.5799H20.7003C20.617 25.3928 19.9022 18.0488 18.7148 12.6898C18.0951 9.89292 17.3658 7.62289 16.5003 5.96632C16.0675 5.13804 15.6024 4.45721 15.0436 3.93912C14.4848 3.42104 13.7784 3.05273 12.9993 3.05273C12.1853 3.05273 11.4686 3.46977 10.9104 4.03452C10.3522 4.59928 9.89012 5.33618 9.45567 6.24059C8.58677 8.0494 7.84651 10.544 7.2189 13.616C6.01184 19.5242 5.28624 27.6231 5.2293 36.6326H2.14158C2.23369 27.0341 3.48727 18.3103 5.52916 12.0578C6.58825 8.81482 7.84866 6.22302 9.17001 4.51151C10.4914 2.79999 11.7854 2.03514 12.9992 2.03514Z" fill="#87CFCA"/>
<path d="M67.059 38.988V39.6061H62.0951V38.988C62.3167 38.8793 62.5328 38.7866 62.7435 38.7097C62.9528 38.6342 63.1791 38.5693 63.4222 38.515V31.7099L63.5053 29.804H63.3736L62.8265 31.547L59.6233 39.6061H58.8595L55.6725 31.6126L55.0748 29.7066H54.9249L54.9411 31.7755V38.4494C55.1518 38.4931 55.3841 38.564 55.6381 38.662C55.8934 38.7601 56.1317 38.8687 56.3533 38.988V39.6061H52.3032V38.988C52.4801 38.9005 52.6982 38.7972 52.9576 38.6779C53.2183 38.5587 53.4648 38.4772 53.6971 38.4335V29.2992C53.4756 29.2568 53.2406 29.1972 52.992 29.1203C52.7421 29.0448 52.5233 28.9474 52.3356 28.8281V28.2101H56.8334L59.3741 34.8362L59.8543 36.3983H59.8705L60.3689 34.8024L62.9582 28.2101H67.0752V28.8281C66.8861 28.9368 66.6842 29.0315 66.4694 29.1124C66.2533 29.1945 66.0345 29.2568 65.813 29.2992V38.5309C66.0453 38.5746 66.2695 38.6402 66.4856 38.7276C66.7017 38.8137 66.8929 38.9005 67.059 38.988ZM74.7094 37.9446L74.9748 38.2864C74.8978 38.5037 74.7709 38.7018 74.5939 38.8806C74.417 39.0608 74.2036 39.2212 73.9537 39.3616C73.7052 39.5034 73.4235 39.612 73.1088 39.6876C72.7928 39.7631 72.4632 39.8008 72.1201 39.8008C71.3894 39.8008 70.7613 39.7008 70.2359 39.5007C69.7104 39.2993 69.2762 39.0118 68.9331 38.6382C68.59 38.2632 68.3354 37.8127 68.1693 37.2867C68.0045 36.7594 67.9221 36.1757 67.9221 35.5358C67.9221 34.1578 68.3064 33.1025 69.0749 32.3698C69.8435 31.6371 70.9362 31.2707 72.3531 31.2707C72.8947 31.2707 73.3925 31.3277 73.8463 31.4416C74.3002 31.5556 74.6763 31.6881 74.9748 31.8391C74.9532 32.0246 74.9228 32.2287 74.8837 32.4513C74.8445 32.6739 74.8006 32.8958 74.752 33.1171C74.702 33.3397 74.6439 33.5569 74.5777 33.7689C74.5102 33.9809 74.4433 34.1572 74.3771 34.2976H73.5647L72.8677 32.3618C72.7894 32.3075 72.7063 32.2664 72.6185 32.2386C72.5294 32.2121 72.3963 32.1989 72.2194 32.1989C71.9317 32.1989 71.6831 32.2499 71.4738 32.3519C71.2631 32.4552 71.0828 32.6321 70.9328 32.8825C70.7843 33.1316 70.6742 33.4622 70.6026 33.8743C70.5296 34.2877 70.4932 34.7978 70.4932 35.4046C70.4932 35.8498 70.5432 36.2599 70.6431 36.6348C70.7431 37.0098 70.895 37.3351 71.099 37.6107C71.3043 37.8876 71.5616 38.1049 71.8709 38.2626C72.1816 38.4202 72.5469 38.4991 72.967 38.4991C73.3547 38.4991 73.6923 38.4447 73.98 38.3361C74.2677 38.2274 74.5109 38.0969 74.7094 37.9446ZM77.5966 39.6061H75.7711V38.988C75.9602 38.8793 76.1709 38.7839 76.4032 38.7018C76.6355 38.621 76.8787 38.5587 77.1326 38.515V29.2992C76.8787 29.2462 76.6328 29.1786 76.3951 29.0965C76.156 29.0156 75.948 28.9262 75.7711 28.8281V28.2101H77.6979C77.8856 28.2101 78.1179 28.2041 78.3948 28.1922C78.6704 28.1816 78.9581 28.1683 79.2579 28.1524C79.5564 28.1365 79.8468 28.12 80.1291 28.1027C80.4114 28.0868 80.6519 28.0789 80.8504 28.0789C81.8135 28.0789 82.6739 28.2034 83.4316 28.4525C84.1894 28.7029 84.831 29.0666 85.3564 29.5436C85.8818 30.0219 86.2857 30.6135 86.568 31.3184C86.8503 32.0246 86.9914 32.8388 86.9914 33.761C86.9914 34.662 86.8591 35.4815 86.5943 36.2195C86.3282 36.9575 85.9298 37.5868 85.3989 38.1075C84.8668 38.6296 84.1941 39.0343 83.381 39.3219C82.5679 39.6094 81.6136 39.7531 80.5181 39.7531C80.375 39.7531 80.1818 39.7445 79.9387 39.7273C79.6942 39.7114 79.4335 39.6955 79.1566 39.6796C78.8811 39.6637 78.6049 39.6471 78.328 39.6299C78.0511 39.614 77.8073 39.6061 77.5966 39.6061ZM80.6357 29.1382C80.4358 29.1382 80.2365 29.1435 80.038 29.1541C79.8381 29.1647 79.6665 29.1806 79.5234 29.2018V38.6282C79.5666 38.6402 79.6436 38.6488 79.7543 38.6541C79.8651 38.6594 79.9785 38.6647 80.0947 38.67C80.2109 38.6753 80.3243 38.6806 80.4351 38.6859C80.5458 38.6912 80.6289 38.6938 80.6843 38.6938C81.3259 38.6938 81.8709 38.564 82.3193 38.3043C82.7678 38.0433 83.1358 37.6902 83.4235 37.245C83.7112 36.7998 83.9213 36.2791 84.0536 35.6828C84.186 35.0853 84.2522 34.45 84.2522 33.7769C84.2522 33.1807 84.1833 32.6056 84.0455 32.0518C83.9078 31.498 83.695 31.0037 83.4073 30.5692C83.1196 30.1359 82.7461 29.7887 82.2869 29.5277C81.8277 29.268 81.2772 29.1382 80.6357 29.1382ZM88.1706 35.5358C88.1706 34.8733 88.2726 34.2791 88.4765 33.753C88.6818 33.227 88.9749 32.7792 89.3558 32.4095C89.7381 32.0412 90.2007 31.759 90.7437 31.5629C91.2853 31.3681 91.8992 31.2707 92.5854 31.2707C93.3594 31.2707 94.0259 31.3761 94.5851 31.5867C95.1443 31.7987 95.6036 32.0922 95.9628 32.4672C96.3221 32.8408 96.5848 33.2913 96.751 33.8186C96.9171 34.3446 97.0002 34.917 97.0002 35.5358C97.0002 36.1983 96.9002 36.7925 96.7003 37.3185C96.5018 37.8445 96.2114 38.2924 95.8291 38.662C95.4482 39.0304 94.9836 39.3126 94.4352 39.5087C93.8882 39.7035 93.2716 39.8008 92.5854 39.8008C91.833 39.8008 91.18 39.6955 90.6262 39.4848C90.0737 39.2728 89.6145 38.9794 89.2485 38.6044C88.8838 38.2308 88.613 37.7803 88.436 37.2529C88.2591 36.7269 88.1706 36.1545 88.1706 35.5358ZM90.7437 35.5358C90.7437 36.0247 90.7741 36.4725 90.8349 36.8793C90.8957 37.2861 91.003 37.6305 91.157 37.9128C91.3124 38.195 91.5231 38.4149 91.7892 38.5726C92.0539 38.7303 92.397 38.8091 92.8184 38.8091C93.0615 38.8091 93.2824 38.7521 93.4809 38.6382C93.6808 38.5242 93.8524 38.3394 93.9955 38.0837C94.1401 37.8293 94.2481 37.4928 94.3197 37.0741C94.3913 36.6567 94.4271 36.1439 94.4271 35.5358C94.4271 35.0363 94.3967 34.5858 94.3359 34.1843C94.2751 33.7829 94.1698 33.441 94.0198 33.1588C93.8713 32.8766 93.6693 32.6566 93.4141 32.499C93.1601 32.3413 92.8393 32.2625 92.4517 32.2625C92.164 32.2625 91.9154 32.3194 91.7061 32.4334C91.4954 32.5473 91.3184 32.7322 91.1753 32.9879C91.0307 33.2423 90.9227 33.5788 90.8511 33.9975C90.7795 34.4149 90.7437 34.9276 90.7437 35.5358ZM108.004 38.9721V39.6061H103.605V38.9721C103.75 38.8952 103.891 38.827 104.029 38.7674C104.168 38.7077 104.331 38.6455 104.519 38.5805V34.7547C104.519 34.071 104.419 33.5364 104.219 33.1508C104.021 32.7653 103.667 32.5725 103.157 32.5725C102.737 32.5725 102.375 32.7057 102.071 32.972C101.766 33.237 101.537 33.598 101.383 34.0551V38.5805C101.56 38.6243 101.717 38.6759 101.855 38.7356C101.992 38.7952 102.139 38.874 102.294 38.9721V39.6061H97.8957V38.9721C98.1726 38.8303 98.538 38.6998 98.9918 38.5805V32.6222L97.8957 32.491V31.857C98.0402 31.7908 98.2287 31.7278 98.461 31.6682C98.6933 31.6086 98.9452 31.5516 99.2167 31.4973C99.4868 31.443 99.7631 31.3973 100.045 31.3602C100.328 31.3217 100.585 31.2919 100.817 31.2707H101.383V32.9461H101.399C101.631 32.4903 101.98 32.0975 102.444 31.7676C102.909 31.4363 103.473 31.2707 104.136 31.2707C104.568 31.2707 104.956 31.3224 105.299 31.4257C105.642 31.5278 105.932 31.7093 106.17 31.9703C106.408 32.2313 106.59 32.5811 106.717 33.0197C106.846 33.4596 106.91 34.016 106.91 34.6891V38.5805C107.351 38.6561 107.716 38.7866 108.004 38.9721ZM116.005 37.245C116.005 37.4835 116.007 37.6895 116.013 37.8631C116.018 38.038 116.032 38.2228 116.053 38.4176L117.2 38.5805V39.1509C117.066 39.2159 116.886 39.2808 116.659 39.3457C116.432 39.4106 116.194 39.4729 115.946 39.5325C115.697 39.5922 115.452 39.6412 115.208 39.6796C114.964 39.718 114.748 39.7478 114.56 39.769H113.997C113.886 39.5199 113.819 39.2702 113.796 39.0198C113.775 38.7707 113.758 38.4666 113.748 38.1075H113.665C113.609 38.3248 113.515 38.5342 113.381 38.7356C113.249 38.9356 113.08 39.1145 112.876 39.2722C112.671 39.4298 112.43 39.5577 112.153 39.6558C111.876 39.7525 111.566 39.8008 111.223 39.8008C110.858 39.8008 110.521 39.7465 110.212 39.6379C109.901 39.5292 109.63 39.3775 109.398 39.1827C109.165 38.988 108.983 38.7521 108.851 38.4752C108.718 38.1983 108.652 37.8863 108.652 37.5391C108.652 37.0502 108.746 36.6481 108.934 36.3327C109.121 36.0187 109.417 35.761 109.821 35.5596C110.225 35.3596 110.745 35.2105 111.381 35.1125C112.017 35.0144 112.789 34.9442 113.697 34.9018C113.786 33.9677 113.748 33.2833 113.582 32.8488C113.415 32.4155 113.055 32.1989 112.502 32.1989C112.159 32.1989 111.843 32.2532 111.555 32.3618L110.775 34.3155H110.046C109.957 34.1843 109.871 34.0346 109.789 33.8663C109.705 33.6981 109.627 33.5192 109.556 33.3297C109.484 33.1402 109.423 32.9475 109.373 32.7514C109.323 32.5566 109.288 32.3665 109.266 32.181C109.686 31.8988 110.228 31.6768 110.893 31.5152C111.556 31.3522 112.258 31.2707 113 31.2707C113.631 31.2707 114.145 31.3383 114.544 31.4734C114.942 31.6086 115.255 31.7934 115.482 32.0279C115.709 32.2611 115.866 32.5347 115.954 32.8488C116.043 33.1641 116.088 33.5006 116.088 33.8584C116.088 34.5103 116.074 35.0992 116.045 35.6252C116.018 36.1512 116.005 36.6911 116.005 37.245ZM112.271 38.4991C112.503 38.4991 112.702 38.4553 112.866 38.3679C113.032 38.2818 113.174 38.1791 113.29 38.0598C113.406 37.9406 113.494 37.8101 113.555 37.6683C113.616 37.5279 113.663 37.4033 113.697 37.2947V35.6669C113.177 35.6775 112.751 35.71 112.419 35.7643C112.088 35.8187 111.828 35.9081 111.639 36.0326C111.451 36.1572 111.321 36.3142 111.25 36.5037C111.177 36.6945 111.14 36.9257 111.14 37.1973C111.14 37.6093 111.24 37.9293 111.44 38.1572C111.639 38.3851 111.915 38.4991 112.271 38.4991ZM122.543 38.9721V39.6061H117.962V38.9721C118.328 38.7972 118.693 38.6667 119.058 38.5805V28.7149L117.796 28.5837V27.9497C117.94 27.8835 118.139 27.8179 118.393 27.7529C118.649 27.688 118.923 27.631 119.216 27.582C119.509 27.533 119.802 27.4899 120.095 27.4528C120.388 27.4144 120.651 27.3846 120.883 27.3634H121.449V38.5805C121.813 38.6667 122.178 38.7972 122.543 38.9721ZM129.198 37.9942H129.134C129.078 38.2327 128.978 38.4606 128.834 38.6779C128.691 38.8952 128.519 39.088 128.319 39.2563C128.121 39.4245 127.894 39.5577 127.638 39.6558C127.384 39.7525 127.114 39.8008 126.826 39.8008C125.73 39.8008 124.898 39.4616 124.328 38.7833C123.758 38.1049 123.473 37.0661 123.473 35.6669C123.473 34.9501 123.573 34.3228 123.773 33.7848C123.971 33.2482 124.25 32.7951 124.609 32.4254C124.97 32.0571 125.404 31.7808 125.912 31.5967C126.421 31.4112 126.986 31.3184 127.606 31.3184C127.804 31.3184 127.973 31.3237 128.112 31.3343C128.25 31.3462 128.377 31.3602 128.493 31.3761C128.61 31.392 128.72 31.4191 128.826 31.4575C128.931 31.496 129.05 31.5364 129.182 31.5788V28.7149L127.922 28.5837V27.9497C128.076 27.8835 128.289 27.8232 128.56 27.7688C128.832 27.7145 129.117 27.6635 129.415 27.6158C129.714 27.5668 130.007 27.5204 130.295 27.4767C130.582 27.433 130.82 27.3952 131.008 27.3634H131.573V38.4494L132.669 38.5805V39.1509C132.514 39.2265 132.315 39.2967 132.071 39.3616C131.827 39.4265 131.572 39.4862 131.308 39.5405C131.041 39.5948 130.784 39.6412 130.536 39.6796C130.287 39.718 130.08 39.7478 129.914 39.769H129.348L129.198 37.9942ZM127.622 38.4991C128.01 38.4991 128.336 38.3798 128.601 38.1413C128.867 37.9015 129.061 37.4941 129.182 36.919V32.5407C129.039 32.4533 128.859 32.3824 128.643 32.328C128.427 32.2737 128.159 32.2466 127.839 32.2466C127.196 32.2466 126.737 32.5314 126.461 33.1012C126.184 33.6709 126.046 34.499 126.046 35.5855C126.046 36.4639 126.167 37.1695 126.411 37.7021C126.654 38.2334 127.058 38.4991 127.622 38.4991Z" fill="#87CFCA"/>
</svg>
