<svg width="106" height="35" viewBox="0 0 106 35" fill="none" xmlns="http://www.w3.org/2000/svg">
<path d="M105.351 8.33351C106.787 16.5625 84.384 27.3412 55.3048 32.4033C26.2323 37.4676 1.49925 34.8981 0.0651652 26.6648C-1.36892 18.4358 21.0406 7.6593 50.1153 2.59938C79.1923 -2.46933 103.919 0.102357 105.351 8.33351Z" fill="#87CFCA"/>
<path d="M77.9866 20.5485L77.8373 11.9923H80.5363V22.7776H76.6579L73.9633 13.9271H73.9062L74.0555 22.7776H71.374V11.9923H75.4215L77.9273 20.5485H77.9866Z" fill="#FAFAFA"/>
<path d="M28.9401 13.0025L27.4467 22.8918H24.5038L26.5221 11.9923H31.3712L33.3851 22.8918H30.451L28.9994 13.0025H28.9401Z" fill="#FAFAFA"/>
<path d="M41.6491 20.3245L42.9954 11.9923H47.4404L47.6753 22.8918H44.9521L44.8796 13.0926H44.8225L43.0019 22.8918H40.237L38.412 13.0926H38.3549L38.2868 22.8918H35.557L35.7986 11.9923H40.2458L41.5898 20.3245H41.6491Z" fill="#FAFAFA"/>
<path d="M19.9139 19.8174C20.0215 20.0809 19.9886 20.4213 19.9381 20.6256C19.8458 20.9879 19.5999 21.3569 18.8773 21.3569C18.1921 21.3569 17.7793 20.9638 17.7793 20.3686V19.3145H14.854L14.8518 20.1578C14.8518 22.5867 16.7647 23.3224 18.8159 23.3224C20.788 23.3224 22.4109 22.6482 22.6679 20.832C22.8019 19.8898 22.7008 19.2749 22.6569 19.0399C22.1979 16.7581 18.0604 16.0773 17.7529 14.8014C17.7002 14.584 17.7156 14.3512 17.7419 14.226C17.8188 13.879 18.056 13.4969 18.7368 13.4969C19.3737 13.4969 19.7492 13.8922 19.7492 14.4851C19.7492 14.685 19.7492 15.1593 19.7492 15.1593H22.4658V14.3951C22.4658 12.0211 20.3356 11.6499 18.7917 11.6499C16.8525 11.6499 15.2691 12.2912 14.9792 14.0635C14.9001 14.5532 14.8891 14.9902 15.0033 15.5371C15.4821 17.7596 19.3517 18.4052 19.9139 19.8174Z" fill="#FAFAFA"/>
<path d="M55.3533 19.7974C55.4609 20.0587 55.4258 20.3903 55.3774 20.5946C55.2874 20.957 55.0436 21.3193 54.3255 21.3193C53.6513 21.3193 53.2406 20.9262 53.2406 20.3442L53.2384 19.2989H50.3439L50.3395 20.1312C50.3395 22.536 52.2348 23.2629 54.264 23.2629C56.2142 23.2629 57.8217 22.5975 58.0765 20.7988C58.2105 19.8633 58.116 19.2571 58.0677 19.0265C57.6109 16.7667 53.5151 16.0925 53.212 14.8275C53.1593 14.6101 53.1747 14.3817 53.2011 14.2631C53.2801 13.9117 53.5129 13.5406 54.1871 13.5406C54.8196 13.5406 55.1864 13.9249 55.1864 14.5157C55.1864 14.7133 55.1864 15.1833 55.1864 15.1833H57.8832V14.4256C57.8832 12.0757 55.7705 11.709 54.2398 11.709C52.3226 11.709 50.7524 12.3415 50.4691 14.1028C50.39 14.5859 50.3812 15.0142 50.4954 15.5588C50.9654 17.7594 54.7977 18.4006 55.3533 19.7974Z" fill="#FAFAFA"/>
<path d="M64.5066 21.2624C65.2621 21.2624 65.4971 20.7397 65.5498 20.4718C65.5717 20.3532 65.5783 20.1972 65.5761 20.0545V11.988H68.3323V19.8063C68.3389 20.0062 68.3191 20.419 68.3081 20.5201C68.1149 22.5559 66.5051 23.2147 64.5044 23.2147C62.4993 23.2147 60.8896 22.5537 60.6985 20.5201C60.6897 20.4168 60.6699 20.004 60.6743 19.8063V11.988H63.4283V20.0523C63.4283 20.1928 63.4327 20.3532 63.4547 20.4696C63.5161 20.7353 63.7445 21.2624 64.5066 21.2624Z" fill="#FAFAFA"/>
<path d="M87.2433 21.1457C88.0317 21.1457 88.3085 20.6472 88.359 20.3573C88.3787 20.2321 88.3853 20.0806 88.3831 19.9422V18.361H87.2653V16.771H91.1305V19.6962C91.1283 19.9005 91.1239 20.052 91.091 20.4144C90.9109 22.3975 89.1891 23.1047 87.2587 23.1047C85.3239 23.1047 83.6065 22.3975 83.422 20.4144C83.3913 20.0498 83.3869 19.9005 83.3825 19.6962L83.3847 15.1085C83.3847 14.9152 83.4089 14.5726 83.4308 14.3904C83.6724 12.3523 85.3239 11.6979 87.2587 11.6979C89.1913 11.6979 90.8845 12.3501 91.0844 14.3904C91.1195 14.7373 91.1086 15.1085 91.1086 15.1085V15.4731H88.3612V14.8625C88.3634 14.8647 88.3568 14.6034 88.326 14.4475C88.2799 14.2059 88.0713 13.6524 87.2389 13.6524C86.4439 13.6524 86.2133 14.1751 86.154 14.4475C86.1211 14.5902 86.1079 14.7857 86.1079 14.9613V19.9466C86.1057 20.085 86.1145 20.2365 86.1365 20.3617C86.1804 20.6472 86.4549 21.1457 87.2433 21.1457Z" fill="#FAFAFA"/>
</svg>
