<svg width="121" height="35" viewBox="0 0 121 35" fill="none" xmlns="http://www.w3.org/2000/svg">
<path d="M48.7038 11.7656H52.2551V13.0174L50.6478 13.2951V21.5001C50.6478 22.5843 50.9564 23.4076 51.5735 23.97C52.192 24.5325 53.0076 24.8137 54.0202 24.8137C55.0848 24.8137 55.9425 24.5339 56.5933 23.9742C57.244 23.416 57.5694 22.5913 57.5694 21.5001V13.2951L55.9621 13.0174V11.7656H59.5134H61.1207V13.0174L59.5134 13.2951V21.5001C59.5134 23.0584 59.0057 24.2526 57.9902 25.083C56.9733 25.9147 55.65 26.3305 54.0202 26.3305C52.4354 26.3305 51.1534 25.9147 50.1744 25.083C49.194 24.2526 48.7038 23.0584 48.7038 21.5001V13.2951L47.0965 13.0174V11.7656H48.7038ZM64.0093 11.7656H68.419C70.2928 11.7656 71.7998 12.3428 72.9401 13.4971C74.0804 14.65 74.6506 16.1402 74.6506 17.9678V19.9306C74.6506 21.7652 74.0804 23.2561 72.9401 24.4034C71.7998 25.5507 70.2928 26.1244 68.419 26.1244H62.402V24.881L64.0093 24.6054V13.2951L62.402 13.0174V11.7656H64.0093ZM68.419 13.2951H65.9533V24.6054H68.419C69.7472 24.6054 70.7942 24.1685 71.56 23.2947C72.3258 22.4195 72.7087 21.2981 72.7087 19.9306V17.9488C72.7087 16.594 72.3258 15.4796 71.56 14.6058C70.7942 13.732 69.7472 13.2951 68.419 13.2951ZM87.5303 26.1244H76.3968V24.881L78.0041 24.6054V13.2951L76.3968 13.0174V11.7656H87.4209V15.218H85.7547L85.5969 13.2951H79.9459V17.9383H85.4391V19.4678H79.9459V24.6054H85.7168L85.8746 22.6825H87.5303V26.1244ZM103.122 20.444L103.309 14.6247L103.261 14.6163L98.6155 26.1244H97.3237L92.6784 14.6247L92.6279 14.6353L92.8257 20.444V24.6054L94.433 24.881V26.1244H89.2765V24.881L90.8838 24.6054V13.2951L89.2765 13.0174V11.7656H90.8838H93.3685L97.9443 23.4314H98.0032L102.569 11.7656H106.671V13.0174L105.064 13.2951V24.6054L106.671 24.881V26.1244H101.515V24.881L103.122 24.6054V20.444ZM112.56 11.7656V13.0174L111.011 13.2047L114.02 19.0639L117.026 13.2047L115.488 13.0174V11.7656H120.42V13.0174L119.206 13.2047L114.946 21.0751V24.6054L116.553 24.881V26.1244H111.405V24.881L113.014 24.6054V20.9279L108.832 13.2047L107.628 13.0174V11.7656H112.56Z" fill="#87CFCA"/>
<path d="M0.584412 16.6638C0.584412 16.6638 9.56081 9.79122 11.5244 2.63815C13.2075 -0.447485 15.4516 0.814821 15.4516 0.814821C15.4516 0.814821 17.9762 1.93687 17.4152 5.44328C16.8541 8.94968 10.9634 25.7804 14.4698 28.0245C17.9762 30.2686 24.4807 12.2463 28.2149 7.26661C30.3187 4.46148 33.1239 5.86405 33.9654 8.52892C34.8069 11.1938 34.6667 20.8715 34.6667 20.8715C34.6667 20.8715 35.0875 25.4999 38.3133 22.8351C41.5392 20.1702 41.5392 19.6092 42.6613 21.5727C43.7833 23.5363 40.6977 27.183 38.8744 28.1648C37.051 29.1466 33.1239 29.9881 30.0382 27.3233C26.9526 24.6584 27.2331 18.9079 27.2331 18.9079C27.2331 18.9079 23.0254 29.7076 18.2567 32.7933C13.488 35.8789 6.57953 36.3243 6.05441 29.8479C5.63364 24.6584 6.75569 18.2066 6.75569 18.2066C6.75569 18.2066 5.63364 21.2922 2.26749 20.1702C0.715691 19.6529 0.584412 16.6638 0.584412 16.6638Z" fill="#87CFCA"/>
</svg>
