<svg width="149" height="50" viewBox="0 0 149 50" fill="none" xmlns="http://www.w3.org/2000/svg">
<path d="M25 0C11.1929 0 0 11.1929 0 25C0 38.8071 11.1929 50 25 50C38.8071 50 50 38.8071 50 25C50 11.1929 38.8071 0 25 0Z" fill="#87CFCA"/>
<path d="M63.5886 28.696L65.6347 22.328C65.3753 22.2733 65.1292 22.2022 64.8964 22.1147C64.6636 22.0288 64.455 21.9421 64.2706 21.8546V21.2382H68.398V21.8546C68.2683 21.9421 68.098 22.0288 67.8871 22.1147C67.6746 22.2022 67.455 22.2733 67.2285 22.328L63.4902 32.6124L61.8824 32.8093L57.6894 22.328C57.4722 22.2733 57.2558 22.2054 57.0402 22.1241C56.823 22.0429 56.6331 21.953 56.4706 21.8546V21.2382H61.8824V21.8546C61.698 21.9421 61.4917 22.0288 61.2636 22.1147C61.0371 22.2022 60.7988 22.2733 60.5488 22.328L62.8246 28.7288L63.1972 30.2569H63.23L63.5886 28.696ZM67.2777 28.5507C67.2777 27.8898 67.3777 27.2968 67.5777 26.7718C67.7777 26.2468 68.0644 25.7999 68.4378 25.4312C68.8128 25.0624 69.2652 24.7804 69.7949 24.5851C70.3261 24.3897 70.9277 24.2921 71.5996 24.2921C72.3574 24.2921 73.0097 24.3983 73.5566 24.6108C74.105 24.8218 74.555 25.114 74.9066 25.4874C75.2582 25.8608 75.5152 26.3108 75.6777 26.8374C75.8402 27.3624 75.9214 27.9335 75.9214 28.5507C75.9214 29.2116 75.8238 29.8046 75.6285 30.3296C75.4347 30.8546 75.1503 31.3015 74.7753 31.6702C74.4019 32.039 73.9472 32.321 73.4113 32.5163C72.8753 32.7116 72.2714 32.8093 71.5996 32.8093C70.8621 32.8093 70.223 32.703 69.6824 32.4905C69.1402 32.2796 68.6902 31.9874 68.3324 31.614C67.9761 31.2405 67.7113 30.7905 67.5378 30.264C67.3644 29.739 67.2777 29.1679 67.2777 28.5507ZM69.7949 28.5507C69.7949 29.0382 69.8246 29.4851 69.8839 29.8913C69.9449 30.2976 70.0511 30.6413 70.2027 30.9226C70.3542 31.2054 70.5597 31.4249 70.8191 31.5812C71.08 31.739 71.416 31.8179 71.8269 31.8179C72.066 31.8179 72.2824 31.7608 72.4761 31.6468C72.6714 31.5327 72.8394 31.3483 72.98 31.0937C73.1207 30.839 73.2261 30.503 73.2964 30.0858C73.3683 29.6687 73.4042 29.1569 73.4042 28.5507C73.4042 28.0522 73.3738 27.603 73.3128 27.203C73.2535 26.8015 73.1511 26.4601 73.0058 26.1788C72.8589 25.896 72.6613 25.6765 72.4128 25.5202C72.1628 25.3624 71.848 25.2835 71.4683 25.2835C71.1871 25.2835 70.9433 25.3405 70.7371 25.4546C70.5324 25.5687 70.3597 25.753 70.2191 26.0077C70.0769 26.2624 69.9707 26.5983 69.9003 27.0155C69.83 27.4327 69.7949 27.9444 69.7949 28.5507ZM81.4152 31.9796V32.6124H76.9293V31.9796C77.2871 31.8062 77.6449 31.6765 78.0027 31.5905V21.7421L76.7675 21.6108V20.978C76.9082 20.9124 77.1027 20.8476 77.3511 20.7835C77.6011 20.7179 77.8699 20.6608 78.1574 20.6124C78.4433 20.564 78.73 20.521 79.0175 20.4835C79.305 20.4444 79.5621 20.414 79.7886 20.3921H80.3418V31.5905C80.6996 31.6765 81.0574 31.8062 81.4152 31.9796ZM87.0543 25.1218V24.489H90.8558V25.1218C90.6496 25.2093 90.4574 25.2851 90.2793 25.3491C90.0996 25.4147 89.9019 25.4687 89.6863 25.5108C89.5238 25.728 89.3472 25.9421 89.1566 26.153C88.9675 26.3655 88.7785 26.5687 88.5894 26.7624C88.3988 26.9577 88.2168 27.1452 88.0433 27.3249C87.8714 27.503 87.7144 27.6624 87.5722 27.803C87.7347 28.0202 87.9246 28.2804 88.1418 28.5835C88.3589 28.8866 88.5918 29.2085 88.8402 29.5491C89.0902 29.8913 89.3527 30.2382 89.6277 30.5898C89.9043 30.9413 90.1839 31.2749 90.4668 31.5905L91.2941 31.9796V32.6124H88.5472L88.1089 32.2233C87.8605 31.8874 87.641 31.5733 87.4503 31.2812C87.2613 30.989 87.091 30.7069 86.9394 30.4351C86.7878 30.1648 86.6418 29.9023 86.5011 29.6476C86.3605 29.3929 86.2199 29.1413 86.0793 28.8929L85.5425 28.7288V31.5905C85.7269 31.6218 85.8949 31.6702 86.0464 31.7358C86.198 31.8015 86.3605 31.8827 86.5339 31.9796V32.6124H82.13V31.9796C82.4878 31.8062 82.8449 31.6765 83.2011 31.5905V21.7421L81.966 21.6108V20.978C82.1175 20.9124 82.3238 20.8476 82.5847 20.7835C82.8441 20.7179 83.1199 20.6608 83.4121 20.6124C83.7058 20.564 83.9933 20.521 84.2746 20.4835C84.5558 20.4444 84.7941 20.414 84.9894 20.3921H85.5425V28.014H85.9644C86.3222 27.6358 86.655 27.2187 86.9629 26.7624C87.2722 26.3077 87.5464 25.8905 87.7855 25.5108C87.6433 25.4687 87.516 25.4147 87.4035 25.3491C87.2894 25.2851 87.173 25.2093 87.0543 25.1218ZM95.9746 30.8429C95.9746 30.5601 95.8746 30.3163 95.6746 30.1116C95.473 29.9054 95.2238 29.7155 94.9269 29.5421C94.6285 29.3687 94.3035 29.1952 93.9519 29.0218C93.5988 28.8483 93.2738 28.6452 92.9769 28.4124C92.6785 28.1796 92.4293 27.9062 92.2293 27.5921C92.0293 27.278 91.9293 26.8937 91.9293 26.439C91.9293 26.114 92.005 25.8187 92.1566 25.553C92.3082 25.2874 92.5136 25.0624 92.773 24.878C93.0324 24.6937 93.3441 24.5499 93.7082 24.4468C94.0707 24.3437 94.4629 24.2921 94.8847 24.2921C95.4707 24.2921 96.0152 24.3382 96.5183 24.4304C97.023 24.5226 97.4644 24.6499 97.8425 24.8124C97.8004 25.1593 97.7136 25.5304 97.5824 25.9257C97.4527 26.321 97.3285 26.6812 97.2097 27.0062H96.6566L95.9746 25.3491C95.8449 25.2944 95.7097 25.2593 95.5691 25.2437C95.4269 25.228 95.2699 25.2202 95.098 25.2202C94.773 25.2202 94.5261 25.3147 94.3574 25.5038C94.1902 25.6929 94.1066 25.9069 94.1066 26.146C94.1066 26.4163 94.2066 26.6515 94.4066 26.8515C94.6066 27.053 94.8558 27.2405 95.1543 27.414C95.4511 27.5874 95.7761 27.7608 96.1293 27.9343C96.4808 28.1062 96.8058 28.3038 97.1043 28.5273C97.4011 28.7491 97.6504 29.0116 97.8519 29.3148C98.0519 29.6179 98.1519 29.9804 98.1519 30.4023C98.1519 31.1507 97.8488 31.739 97.2425 32.1671C96.6347 32.5952 95.8222 32.8093 94.805 32.8093C94.2847 32.8093 93.748 32.7546 93.1949 32.6452C92.6433 32.5374 92.1668 32.3858 91.7652 32.1905C91.7871 31.7999 91.8793 31.4046 92.0418 31.0046C92.2043 30.603 92.3777 30.2452 92.5621 29.9312H93.1152L93.9097 31.703C94.03 31.7905 94.1629 31.8421 94.3082 31.8577C94.455 31.8733 94.5933 31.8812 94.723 31.8812C95.0371 31.8812 95.3246 31.789 95.5855 31.6046C95.8449 31.4218 95.9746 31.1679 95.9746 30.8429ZM103.4 32.6124L101.89 32.8093L99.3379 25.5108C99.1863 25.4577 99.0371 25.4015 98.8902 25.3421C98.7449 25.2827 98.6074 25.2093 98.4777 25.1218V24.489H102.589V25.1054C102.437 25.1929 102.286 25.2718 102.134 25.3421C101.982 25.4124 101.825 25.4687 101.663 25.5108L102.783 29.671L102.994 30.9226H103.027L103.32 29.6241L105.043 24.5851L105.837 24.489L107.691 29.6405L108.031 30.9226H108.064L108.324 29.6546L109.299 25.5108C109.18 25.4905 109.042 25.4476 108.884 25.3819C108.728 25.3163 108.568 25.2296 108.406 25.1218V24.489H111.542V25.1218C111.314 25.2733 111.005 25.403 110.616 25.5108L108.357 32.6124L106.828 32.8093L105.432 28.7944L105.122 27.4468H105.075L104.7 28.7944L103.4 32.6124ZM119.016 30.2569C119.016 30.496 119.019 30.7015 119.025 30.8733C119.03 31.0468 119.043 31.2312 119.065 31.4265L120.188 31.5905V32.1577C120.057 32.2233 119.88 32.2882 119.658 32.3523C119.436 32.4179 119.203 32.4804 118.96 32.5398C118.716 32.5991 118.475 32.6483 118.238 32.6874C117.999 32.7249 117.787 32.7546 117.603 32.7765H117.05C116.942 32.5265 116.877 32.2773 116.855 32.0288C116.833 31.7788 116.817 31.4749 116.806 31.1171H116.726C116.671 31.3343 116.579 31.5429 116.45 31.7429C116.32 31.9444 116.154 32.1233 115.953 32.2796C115.753 32.4374 115.518 32.5648 115.247 32.6616C114.977 32.7601 114.674 32.8093 114.338 32.8093C113.98 32.8093 113.65 32.7546 113.346 32.6452C113.043 32.5374 112.778 32.3858 112.55 32.1905C112.321 31.9952 112.143 31.7593 112.013 31.4827C111.883 31.2077 111.818 30.8968 111.818 30.5499C111.818 30.0624 111.911 29.6616 112.095 29.3476C112.279 29.0335 112.569 28.7757 112.964 28.5741C113.36 28.3741 113.868 28.2257 114.49 28.1288C115.114 28.0304 115.87 27.9601 116.759 27.9179C116.845 26.9851 116.807 26.3023 116.644 25.8694C116.482 25.4366 116.129 25.2202 115.587 25.2202C115.253 25.2202 114.944 25.2741 114.661 25.3819L113.897 27.3319H113.182C113.096 27.2023 113.013 27.053 112.932 26.8843C112.85 26.7171 112.775 26.539 112.704 26.3499C112.634 26.1593 112.575 25.9663 112.526 25.771C112.476 25.5772 112.44 25.3882 112.418 25.2038C112.831 24.921 113.362 24.6983 114.012 24.5358C114.662 24.3733 115.35 24.2921 116.075 24.2921C116.693 24.2921 117.197 24.3601 117.586 24.496C117.977 24.6319 118.283 24.8163 118.505 25.0491C118.727 25.2819 118.882 25.5554 118.969 25.8694C119.055 26.1835 119.098 26.5194 119.098 26.8772C119.098 27.5272 119.085 28.1148 119.058 28.6398C119.03 29.1648 119.016 29.7038 119.016 30.2569ZM115.36 31.5085C115.588 31.5085 115.783 31.4648 115.946 31.3773C116.108 31.2913 116.246 31.189 116.361 31.0702C116.475 30.9499 116.561 30.8194 116.621 30.6788C116.68 30.5382 116.726 30.414 116.759 30.3062V28.6796C116.25 28.6905 115.832 28.7233 115.507 28.778C115.182 28.8327 114.928 28.9218 114.743 29.0452C114.559 29.1702 114.432 29.328 114.361 29.5187C114.291 29.7077 114.256 29.9374 114.256 30.2077C114.256 30.6202 114.353 30.9398 114.549 31.1663C114.744 31.3944 115.014 31.5085 115.36 31.5085ZM124.721 24.2921C125.425 24.2921 126.011 24.3655 126.476 24.5124C126.942 24.6593 127.293 24.8405 127.531 25.0562C128.04 24.5046 128.625 24.1202 129.286 23.903C129.363 23.9577 129.439 24.0366 129.514 24.1397C129.59 24.2413 129.656 24.3523 129.711 24.4726C129.764 24.5913 129.807 24.7101 129.839 24.8288C129.872 24.9491 129.889 25.0468 129.889 25.1218L129.678 25.5108H127.971C128.09 25.664 128.201 25.8624 128.304 26.1062C128.407 26.3499 128.459 26.639 128.459 26.9733C128.459 27.3312 128.383 27.6671 128.232 27.9812C128.08 28.2952 127.85 28.5741 127.54 28.8179C127.231 29.0616 126.841 29.2546 126.371 29.3968C125.899 29.5374 125.349 29.6077 124.721 29.6077C124.536 29.6077 124.371 29.6046 124.226 29.5983C124.079 29.5937 123.952 29.5804 123.844 29.5585C123.8 29.6226 123.754 29.7007 123.706 29.7929C123.656 29.8851 123.631 29.9749 123.631 30.0624C123.631 30.2468 123.761 30.3929 124.022 30.5007C124.282 30.6085 124.612 30.7062 125.014 30.7937C125.414 30.8796 125.844 30.9773 126.305 31.0866C126.766 31.1944 127.196 31.3374 127.596 31.5155C127.998 31.6952 128.334 31.928 128.604 32.214C128.875 32.5015 129.015 32.8726 129.026 33.3273C129.037 33.7616 128.929 34.1468 128.703 34.4827C128.475 34.8187 128.163 35.103 127.768 35.3358C127.372 35.5687 126.907 35.7468 126.371 35.8702C125.835 35.9952 125.263 36.0577 124.655 36.0577C123.941 36.0577 123.332 36.0007 122.827 35.8866C122.324 35.7741 121.915 35.6202 121.601 35.4249C121.287 35.2296 121.057 35.0077 120.91 34.7593C120.764 34.5093 120.692 34.2491 120.692 33.9788C120.692 33.6757 120.751 33.4155 120.87 33.1983C120.989 32.9812 121.157 32.7913 121.374 32.6288C121.589 32.4663 121.841 32.3312 122.128 32.2233C122.416 32.1155 122.733 32.0179 123.08 31.9304C122.918 31.8866 122.761 31.8327 122.609 31.7687C122.457 31.703 122.321 31.6241 122.201 31.5319C122.082 31.4398 121.986 31.3319 121.911 31.2085C121.834 31.0835 121.796 30.9398 121.796 30.7773C121.796 30.6366 121.839 30.4983 121.925 30.3624C122.012 30.2265 122.126 30.1023 122.267 29.9898C122.407 29.8757 122.559 29.7726 122.721 29.6804C122.884 29.5882 123.046 29.5093 123.209 29.4437C122.526 29.2921 121.985 28.9968 121.585 28.5577C121.183 28.1202 120.982 27.5601 120.982 26.8772C120.982 26.0647 121.318 25.4312 121.99 24.9765C122.662 24.5202 123.572 24.2921 124.721 24.2921ZM126.769 33.8476C126.769 33.5554 126.679 33.3202 126.5 33.1421C126.321 32.9624 126.092 32.8155 125.811 32.7015C125.528 32.589 125.211 32.4921 124.859 32.4108C124.507 32.3296 124.158 32.2343 123.811 32.1249C123.528 32.3421 123.328 32.5593 123.209 32.7765C123.09 32.9921 123.031 33.2515 123.031 33.5546C123.031 34.053 123.201 34.4405 123.542 34.7171C123.884 34.9937 124.364 35.1319 124.981 35.1319C125.587 35.1319 126.036 35.0046 126.328 34.7499C126.622 34.4952 126.769 34.1944 126.769 33.8476ZM123.324 26.9593C123.324 27.5218 123.418 27.9491 123.607 28.2413C123.796 28.5335 124.168 28.6796 124.721 28.6796C125.252 28.6796 125.618 28.5312 125.818 28.2343C126.018 27.9358 126.118 27.5108 126.118 26.9593C126.118 26.3733 126.015 25.9366 125.811 25.6491C125.604 25.3632 125.241 25.2202 124.721 25.2202C124.179 25.2202 123.811 25.3608 123.617 25.6421C123.421 25.9233 123.324 26.3624 123.324 26.9593ZM137.185 30.9226L137.494 31.2483C137.407 31.4327 137.268 31.6194 137.079 31.8085C136.889 31.9976 136.656 32.1655 136.381 32.3124C136.104 32.4593 135.785 32.5788 135.422 32.671C135.058 32.7632 134.665 32.8093 134.243 32.8093C133.571 32.8093 132.975 32.7085 132.455 32.5069C131.935 32.3069 131.502 32.0202 131.157 31.6468C130.81 31.2733 130.546 30.8265 130.367 30.3062C130.189 29.7858 130.1 29.2007 130.1 28.5507C130.1 27.1648 130.462 26.1085 131.187 25.3819C131.914 24.6554 132.921 24.2921 134.211 24.2921C134.764 24.2921 135.281 24.3687 135.762 24.5218C136.245 24.6733 136.646 24.9218 136.964 25.2671C137.285 25.614 137.507 26.0694 137.632 26.6335C137.756 27.196 137.747 27.8835 137.607 28.696H132.619C132.63 29.5522 132.849 30.2351 133.275 30.7444C133.704 31.2538 134.335 31.5085 135.169 31.5085C135.527 31.5085 135.898 31.4546 136.282 31.3468C136.667 31.2374 136.968 31.096 137.185 30.9226ZM134.145 25.2202C133.929 25.2202 133.737 25.2577 133.568 25.3327C133.401 25.4093 133.255 25.5476 133.13 25.7476C133.005 25.9476 132.905 26.2187 132.83 26.5608C132.753 26.9015 132.699 27.3319 132.666 27.8523H135.284C135.359 27.0069 135.31 26.3569 135.136 25.9023C134.963 25.4476 134.632 25.2202 134.145 25.2202ZM148.592 31.9796V32.6124H144.286V31.9796C144.427 31.903 144.565 31.8351 144.701 31.7757C144.836 31.7163 144.995 31.6546 145.179 31.5905V27.7702C145.179 27.0874 145.082 26.5538 144.886 26.1694C144.691 25.7851 144.345 25.5929 143.848 25.5929C143.436 25.5929 143.08 25.7257 142.782 25.9913C142.485 26.2569 142.261 26.6171 142.109 27.0718V31.5905C142.282 31.6327 142.436 31.6835 142.571 31.7429C142.707 31.8038 142.85 31.8827 143.002 31.9796V32.6124H138.696V31.9796C138.967 31.839 139.324 31.7093 139.768 31.5905V25.6421L138.696 25.5108V24.878C138.837 24.8124 139.021 24.7499 139.247 24.6905C139.475 24.6312 139.722 24.5749 139.988 24.5218C140.254 24.4671 140.525 24.421 140.801 24.3835C141.076 24.3444 141.328 24.314 141.556 24.2921H142.109V25.9679H142.125C142.352 25.5116 142.693 25.1187 143.147 24.789C143.604 24.4577 144.157 24.2921 144.807 24.2921C145.229 24.2921 145.607 24.3437 145.943 24.4468C146.279 24.5499 146.564 24.7319 146.796 24.9929C147.029 25.2522 147.208 25.6015 147.333 26.0405C147.457 26.4796 147.518 27.0343 147.518 27.7046V31.5905C147.953 31.6655 148.311 31.7952 148.592 31.9796Z" fill="#87CFCA"/>
<path d="M25 3.75C13.2638 3.75 3.75 13.2638 3.75 25C3.75 36.7362 13.2638 46.25 25 46.25C36.7362 46.25 46.25 36.7362 46.25 25C46.25 13.2638 36.7362 3.75 25 3.75ZM25 6.25C26.8775 6.25 28.6887 6.535 30.4 7.05125L25 18.7488L19.6 7.05125C21.3113 6.535 23.1225 6.25 25 6.25ZM6.25 25C6.25 23.44 6.4625 21.9313 6.82375 20.4813L16.7925 41.8325C10.5612 38.7812 6.25 32.3925 6.25 25ZM25 43.75C22.6075 43.75 20.3262 43.2825 18.2212 42.4625L25 30.7037L31.7788 42.4625C29.6738 43.2825 27.3925 43.75 25 43.75ZM28.2288 26.25H25H21.7712L17.9688 33.0475L9.4475 14.5387C10.9087 12.3725 12.8213 10.5425 15.0338 9.14625L21.895 23.75H25H28.105L34.965 9.14625C37.1775 10.5425 39.09 12.3725 40.5513 14.5387L32.03 33.0475L28.2288 26.25ZM33.2075 41.8325L43.1763 20.4813C43.5375 21.9313 43.75 23.44 43.75 25C43.75 32.3925 39.4388 38.7812 33.2075 41.8325Z" fill="white"/>
</svg>
