<svg width="139" height="46" viewBox="0 0 139 46" fill="none" xmlns="http://www.w3.org/2000/svg">
<path d="M53.4022 18.6427L55.4081 26.1111L55.6646 27.9577H55.6801L55.9499 26.0779L58.2433 18.6427H58.8802L61.189 26.1111L61.4589 27.9577H61.4766L61.7618 26.0779L63.6416 18.6427H64.931L61.826 29.9636H61.094L58.8315 22.4952L58.5463 20.8078H58.4666L58.1791 22.5129L55.919 29.9636H55.1869L52.0023 18.6427H53.4022ZM65.632 24.2158C65.632 22.3581 66.025 20.9331 66.8108 19.9409C67.5951 18.9486 68.7149 18.4525 70.1701 18.4525C70.9559 18.4525 71.6349 18.5904 72.2069 18.8661C72.7805 19.1418 73.2559 19.5317 73.6334 20.036C74.0093 20.5402 74.288 21.1454 74.4693 21.8516C74.6492 22.5579 74.7392 23.3459 74.7392 24.2158C74.7392 26.0735 74.344 27.4984 73.5538 28.4907C72.762 29.4829 71.6342 29.9791 70.1701 29.9791C69.3946 29.9791 68.723 29.8412 68.1554 29.5655C67.5878 29.2898 67.1152 28.8998 66.7378 28.3956C66.3618 27.8914 66.0832 27.2861 65.9018 26.5799C65.722 25.8737 65.632 25.0857 65.632 24.2158ZM67.0319 24.2158C67.0319 24.8321 67.0931 25.4159 67.2155 25.9673C67.3379 26.5187 67.5266 27.0045 67.7816 27.4247C68.0367 27.8434 68.3633 28.1774 68.7614 28.4266C69.1594 28.6772 69.629 28.8025 70.1701 28.8025C71.1565 28.8025 71.9312 28.428 72.4944 27.6791C73.0576 26.9301 73.3392 25.7757 73.3392 24.2158C73.3392 23.6113 73.2781 23.0304 73.1557 22.4731C73.0333 21.9158 72.8424 21.427 72.5829 21.0068C72.3219 20.5881 71.9924 20.2542 71.5943 20.005C71.1963 19.7544 70.7215 19.6291 70.1701 19.6291C69.1926 19.6291 68.4252 20.0035 67.8679 20.7525C67.3106 21.5015 67.0319 22.6559 67.0319 24.2158ZM76.9839 29.7889V18.7533C77.3878 18.6796 77.8523 18.6213 78.3771 18.5786C78.9035 18.5358 79.3841 18.5144 79.8191 18.5144C80.3071 18.5144 80.7715 18.5675 81.2123 18.6737C81.6532 18.7798 82.0409 18.9553 82.3756 19.2C82.7088 19.4448 82.9764 19.7632 83.1784 20.1554C83.3804 20.5476 83.4814 21.0253 83.4814 21.5885C83.4814 22.4583 83.2425 23.1646 82.7648 23.7071C82.2871 24.2482 81.6819 24.6087 80.9491 24.7886L81.7143 25.3791L84.4854 29.7889H82.9395L79.8677 24.981L78.3064 24.7421V29.7889H76.9839ZM79.85 19.6622C79.7129 19.6622 79.5699 19.6622 79.421 19.6622C79.2721 19.6622 79.1291 19.6674 78.9919 19.6777C78.8533 19.688 78.7229 19.6983 78.6005 19.7087C78.4781 19.7205 78.3801 19.7367 78.3064 19.7573V23.8664H79.5492C80.2805 23.8664 80.885 23.6858 81.3627 23.3245C81.8404 22.9633 82.0792 22.4008 82.0792 21.6371C82.0792 21.0636 81.8832 20.5911 81.491 20.2195C81.0988 19.848 80.5518 19.6622 79.85 19.6622ZM86.4581 29.8043V18.6427C86.6601 18.6103 86.8857 18.5867 87.1348 18.5719C87.3855 18.5557 87.6457 18.5447 87.9155 18.5388C88.1868 18.5343 88.4522 18.5292 88.7117 18.5233C88.9726 18.5174 89.2144 18.5144 89.437 18.5144C90.329 18.5144 91.1008 18.653 91.7525 18.9302C92.4057 19.2059 92.9445 19.5907 93.3692 20.0846C93.7938 20.5771 94.11 21.1683 94.3179 21.8583C94.5243 22.5483 94.6275 23.3076 94.6275 24.1362C94.6275 24.8896 94.5295 25.6142 94.3334 26.3101C94.1373 27.0045 93.8269 27.6201 93.4023 28.1567C92.9777 28.6934 92.4256 29.1232 91.7459 29.4461C91.0662 29.7704 90.2435 29.9326 89.2778 29.9326C89.1083 29.9326 88.8878 29.9297 88.6166 29.9238C88.3453 29.9193 88.0666 29.909 87.7806 29.8928C87.4946 29.8766 87.2292 29.8633 86.9844 29.853C86.7397 29.8427 86.5642 29.8265 86.4581 29.8043ZM89.468 19.6932C89.3309 19.6932 89.1798 19.6932 89.0146 19.6932C88.8495 19.6932 88.6873 19.6983 88.5281 19.7087C88.3689 19.7205 88.2229 19.7315 88.0902 19.7418C87.9575 19.7522 87.8543 19.7625 87.7806 19.7728V28.6897C87.8337 28.7 87.9347 28.7082 88.0836 28.7141C88.2325 28.72 88.3866 28.7251 88.5458 28.7295C88.705 28.7354 88.8583 28.7406 89.0058 28.745C89.1547 28.7509 89.2557 28.7539 89.3088 28.7539C90.0518 28.7539 90.6755 28.6263 91.1797 28.3713C91.684 28.1162 92.0872 27.7741 92.3894 27.3451C92.6932 26.9146 92.9084 26.4207 93.0352 25.8634C93.162 25.3061 93.2254 24.7303 93.2254 24.1362C93.2254 23.6157 93.1672 23.0931 93.0507 22.5682C92.9342 22.0418 92.733 21.5664 92.4469 21.1417C92.1594 20.7171 91.7746 20.3699 91.2925 20.1001C90.8089 19.8288 90.2007 19.6932 89.468 19.6932ZM96.8722 29.7889V18.7533C97.2762 18.6589 97.7119 18.5955 98.1792 18.5631C98.6451 18.5307 99.1066 18.5144 99.5637 18.5144C100.052 18.5144 100.548 18.5624 101.052 18.6582C101.556 18.754 102.016 18.9295 102.43 19.1845C102.844 19.4396 103.181 19.7898 103.441 20.235C103.701 20.6803 103.832 21.2479 103.832 21.9379C103.832 22.6176 103.71 23.1911 103.465 23.6585C103.22 24.1258 102.896 24.5055 102.494 24.7974C102.09 25.0893 101.628 25.2987 101.107 25.4255C100.588 25.5538 100.052 25.6179 99.4995 25.6179C99.4465 25.6179 99.3587 25.6179 99.2364 25.6179C99.1155 25.6179 98.9887 25.615 98.856 25.6091C98.7233 25.6032 98.5928 25.595 98.4645 25.5847C98.3377 25.5744 98.2478 25.5641 98.1947 25.5538V29.7889H96.8722ZM99.5946 19.6622C99.3189 19.6622 99.0535 19.6674 98.7985 19.6777C98.5449 19.688 98.3436 19.7146 98.1947 19.7573V24.375C98.2478 24.3957 98.3326 24.4089 98.4491 24.4148C98.5655 24.4207 98.6879 24.4259 98.8162 24.4303C98.943 24.4362 99.0646 24.4391 99.1811 24.4391C99.2975 24.4391 99.3823 24.4391 99.4354 24.4391C99.7966 24.4391 100.155 24.4045 100.51 24.3352C100.867 24.2659 101.188 24.1413 101.474 23.9615C101.76 23.7801 101.991 23.525 102.167 23.1963C102.342 22.8675 102.43 22.448 102.43 21.9379C102.43 21.503 102.347 21.1395 102.182 20.8476C102.018 20.5557 101.801 20.322 101.53 20.1466C101.26 19.9726 100.955 19.848 100.614 19.7728C100.275 19.6991 99.9352 19.6622 99.5946 19.6622ZM105.774 29.7889V18.7533C106.178 18.6796 106.642 18.6213 107.167 18.5786C107.692 18.5358 108.172 18.5144 108.609 18.5144C109.097 18.5144 109.561 18.5675 110.002 18.6737C110.441 18.7798 110.829 18.9553 111.163 19.2C111.498 19.4448 111.766 19.7632 111.968 20.1554C112.17 20.5476 112.271 21.0253 112.271 21.5885C112.271 22.4583 112.032 23.1646 111.555 23.7071C111.077 24.2482 110.472 24.6087 109.739 24.7886L110.502 25.3791L113.273 29.7889H111.729L108.655 24.981L107.096 24.7421V29.7889H105.774ZM108.64 19.6622C108.501 19.6622 108.358 19.6622 108.211 19.6622C108.062 19.6622 107.918 19.6674 107.78 19.6777C107.642 19.688 107.513 19.6983 107.39 19.7087C107.268 19.7205 107.17 19.7367 107.096 19.7573V23.8664H108.337C109.07 23.8664 109.675 23.6858 110.153 23.3245C110.63 22.9633 110.869 22.4008 110.869 21.6371C110.869 21.0636 110.673 20.5911 110.281 20.2195C109.887 19.848 109.34 19.6622 108.64 19.6622ZM115.248 29.7889V18.6427H121.314V19.8215H116.57V23.4683H120.916V24.6448H116.57V28.6101H121.394V29.7889H115.248ZM128.813 26.9537C128.813 26.5084 128.681 26.145 128.415 25.8634C128.15 25.5818 127.818 25.3326 127.42 25.1159C127.022 24.8977 126.59 24.6935 126.124 24.5033C125.657 24.3116 125.224 24.0801 124.826 23.8089C124.428 23.5391 124.096 23.2051 123.831 22.807C123.566 22.409 123.433 21.9018 123.433 21.2855C123.433 20.4156 123.735 19.7256 124.34 19.2155C124.946 18.7068 125.806 18.4525 126.92 18.4525C127.568 18.4525 128.157 18.4997 128.687 18.5941C129.218 18.6899 129.632 18.8123 129.928 18.9612L129.53 20.1244C129.287 20.0065 128.928 19.8944 128.455 19.7883C127.983 19.6821 127.45 19.6291 126.856 19.6291C126.156 19.6291 125.63 19.7861 125.279 20.1001C124.929 20.4127 124.753 20.7813 124.753 21.2059C124.753 21.6202 124.886 21.9652 125.151 22.2409C125.417 22.5166 125.748 22.7635 126.146 22.9817C126.544 23.2 126.977 23.4152 127.445 23.6275C127.912 23.8398 128.345 24.086 128.743 24.3662C129.141 24.6478 129.473 24.9854 129.738 25.3791C130.003 25.7712 130.136 26.2592 130.136 26.8431C130.136 27.3208 130.051 27.7506 129.882 28.1324C129.712 28.5143 129.462 28.8438 129.132 29.121C128.803 29.3967 128.405 29.609 127.938 29.7579C127.472 29.9053 126.941 29.9791 126.345 29.9791C125.549 29.9791 124.892 29.9186 124.373 29.7977C123.852 29.6753 123.448 29.5397 123.161 29.3908L123.608 28.1966C123.852 28.3351 124.213 28.4708 124.691 28.6035C125.169 28.7362 125.705 28.8025 126.299 28.8025C126.648 28.8025 126.977 28.7679 127.285 28.6986C127.593 28.6293 127.859 28.518 128.081 28.3646C128.304 28.2098 128.482 28.0159 128.614 27.783C128.747 27.5486 128.813 27.2721 128.813 26.9537ZM137.27 26.9537C137.27 26.5084 137.138 26.145 136.872 25.8634C136.607 25.5818 136.275 25.3326 135.877 25.1159C135.479 24.8977 135.046 24.6935 134.579 24.5033C134.112 24.3116 133.679 24.0801 133.281 23.8089C132.883 23.5391 132.551 23.2051 132.286 22.807C132.02 22.409 131.888 21.9018 131.888 21.2855C131.888 20.4156 132.19 19.7256 132.794 19.2155C133.4 18.7068 134.26 18.4525 135.375 18.4525C136.022 18.4525 136.611 18.4997 137.142 18.5941C137.673 18.6899 138.087 18.8123 138.385 18.9612L137.987 20.1244C137.742 20.0065 137.384 19.8944 136.912 19.7883C136.439 19.6821 135.905 19.6291 135.311 19.6291C134.611 19.6291 134.085 19.7861 133.734 20.1001C133.385 20.4127 133.21 20.7813 133.21 21.2059C133.21 21.6202 133.343 21.9652 133.608 22.2409C133.873 22.5166 134.205 22.7635 134.603 22.9817C135.001 23.2 135.433 23.4152 135.899 23.6275C136.367 23.8398 136.799 24.086 137.197 24.3662C137.596 24.6478 137.927 24.9854 138.193 25.3791C138.458 25.7712 138.591 26.2592 138.591 26.8431C138.591 27.3208 138.506 27.7506 138.336 28.1324C138.167 28.5143 137.918 28.8438 137.589 29.121C137.259 29.3967 136.861 29.609 136.395 29.7579C135.927 29.9053 135.397 29.9791 134.802 29.9791C134.006 29.9791 133.348 29.9186 132.827 29.7977C132.307 29.6753 131.904 29.5397 131.618 29.3908L132.062 28.1966C132.307 28.3351 132.668 28.4708 133.146 28.6035C133.624 28.7362 134.16 28.8025 134.754 28.8025C135.105 28.8025 135.433 28.7679 135.74 28.6986C136.048 28.6293 136.314 28.518 136.536 28.3646C136.76 28.2098 136.939 28.0159 137.071 27.783C137.204 27.5486 137.27 27.2721 137.27 26.9537Z" fill="#87CFCA"/>
<path d="M23 0C10.3111 0 0 10.3111 0 23C0 35.6889 10.3111 46 23 46C35.6889 46 46 35.6889 46 23C46 10.3111 35.6889 0 23 0ZM23 3.83564C27.9984 3.83564 32.5221 5.74439 35.9271 8.85652C35.854 8.85504 35.7803 8.83579 35.6887 8.83579C33.8098 8.83579 32.5856 10.4825 32.5856 12.2464C32.5856 13.8369 33.3868 15.1619 34.3652 16.7524C35.0924 18.0174 35.9375 19.6655 35.9375 22.0221C35.9375 23.671 35.3232 25.5672 34.4792 28.2317L32.5856 34.614L25.3912 12.4503C26.5412 12.3919 27.5751 12.2775 27.5751 12.2775C28.6101 12.1625 28.4961 10.6296 27.4611 10.688C27.4611 10.688 24.3568 10.9368 22.3434 10.9368C20.4663 10.9368 17.3018 10.688 17.3018 10.688C16.2668 10.6296 16.1528 12.2209 17.1878 12.2775C17.1878 12.2775 18.1639 12.3919 19.1989 12.4503L22.4264 22.1949L18.2452 34.7696L10.9955 12.4538C12.1649 12.3954 13.2001 12.281 13.2001 12.281C14.2351 12.166 14.1016 10.633 13.0861 10.6914C13.0861 10.6914 10.1106 10.9275 8.0963 10.9368C11.6043 6.60234 16.9636 3.83564 23 3.83564ZM39.8284 13.8014C41.3173 16.5294 42.1644 19.6609 42.1644 23C42.1644 30.589 37.7885 37.0995 31.4211 40.2085C31.8342 40.0047 32.2448 39.8006 32.6409 39.5589L38.4877 22.6372C39.5793 19.9161 39.9425 17.7295 39.9425 15.7745C39.9425 15.065 39.9062 14.4308 39.8319 13.8186C39.8292 13.8134 39.8308 13.8067 39.8284 13.8014ZM5.66708 14.8346L14.6238 40.2327C8.23158 37.1327 3.83564 30.6072 3.83564 23C3.83564 20.0716 4.50287 17.312 5.66708 14.8346ZM23.3248 24.669L29.2303 40.8236C29.2682 40.9166 29.3059 40.9948 29.3616 41.069C27.3699 41.7664 25.2359 42.1644 23 42.1644C21.1124 42.1644 19.2951 41.8837 17.5748 41.38L23.3248 24.669ZM14.8553 40.3433C15.3532 40.5712 15.8563 40.7776 16.3654 40.9722C15.8508 40.7832 15.3478 40.574 14.8553 40.3433ZM30.813 40.5023C30.4088 40.6821 29.9944 40.8407 29.5759 40.9929C29.996 40.8465 30.4082 40.6809 30.813 40.5023Z" fill="#87CFCA"/>
</svg>
