<svg width="80" height="26" viewBox="0 0 80 26" fill="none" xmlns="http://www.w3.org/2000/svg">
<path d="M21.2945 0C18.8009 0 17.3136 1.63276 17.3136 4.35407L17.3105 5.7536H15.7742L13.9952 8.30074H17.3136V20.7223H20.5699V8.30074H23.8914V5.7536H20.5699V4.30431C20.5699 3.20878 21.026 2.76484 22.1311 2.76484C22.7665 2.76484 23.4248 2.88936 23.8914 3.01674V0.394979C23.2242 0.156127 22.2977 0 21.2945 0ZM59.7503 0.668657L56.5034 2.3232V5.75669H54.1335V8.30072H56.5034V16.6668C56.5034 19.3976 57.9877 21.0146 60.4749 21.0146C61.2997 21.0146 62.1211 20.9149 62.7421 20.7223L63.1371 18.1254C62.9508 18.1716 62.2696 18.3369 61.6661 18.3369C60.311 18.3369 59.7534 17.7947 59.7534 16.4459V8.30074H63.4948L62.5213 5.75671H59.7503L59.7503 0.668657ZM39.7713 5.45502C38.2395 5.45502 36.7785 6.1001 36.0206 7.10646V5.75359H32.7644V20.7223H36.0206V11.9861C36.0206 9.55939 37.069 8.21986 38.9782 8.21986C41.0499 8.21986 41.9359 9.43159 41.9359 12.2691V20.7223H45.1828V12.1541C45.1844 7.76875 43.319 5.45502 39.7713 5.45502ZM0.357657 5.75359L5.44259 12.9782L0 20.7223H3.73516L7.24019 15.5969L14.5146 26H18.1005L9.02845 12.9782L14.1165 5.75359H10.3844L7.24017 10.3596L4.0928 5.75359H0.357657ZM26.0311 5.75359V20.7223H29.2873V19.8794V5.75359H26.0311ZM48.5137 5.75359V20.7223H51.7823V5.75359H48.5137ZM63.9333 5.75359L68.9498 18.8033L65.0684 26H68.505L79.6172 5.75359H76.1029L70.8811 15.2921L67.3077 5.75359H63.9333Z" fill="#87CFCA"/>
</svg>
